<svg viewBox="0 0 663.31 334.49" xmlns="http://www.w3.org/2000/svg"><path d="M116.41 146c53.85-63.74 0-96.94 0-96.94s-3.17 22-40.62 65.9S49 194 76.11 226.26c0 0-13.55-16.49 40.3-80.26zM166 108.23s13.55 16.49-40.3 80.23 0 96.94 0 96.94 3.17-22 40.62-65.9 26.78-79.02-.32-111.27z" fill="#009fe3"/><path d="M608.38 210.26c-13.33 0-25.73-14.09-37.75-25.74 20.47-3.19 36.06-18.4 36.06-39.63 0-31.36-25.73-41.5-50.9-41.5h-56.16V231.1h26.3v-46h12.77c16 11.83 37 47.89 65.55 47.89a47.45 47.45 0 007.47-.62v-22.3a30.58 30.58 0 01-3.34.19zm-49.77-45.83h-32.68V126.3h32.68c12 0 20.66 6.57 20.66 19.16 0 11.83-8.64 18.97-20.66 18.97zm-256.75-7.14l-23.67-6.76c-9.2-2.63-13.9-5.45-13.9-12.4 0-7.32 6.77-12.39 22.92-12.39 13.9 0 29.86 4.69 39.25 10.7l7.51-24.6c-9.76-5.26-27.42-10.15-45.82-10.15-35.13 0-51.09 17.47-51.09 38.7 0 17.28 9.95 29.11 29.3 34.18l24.23 6.57c11.46 3.2 18.22 6.58 18.22 13.53 0 8.45-8.64 14.27-24 14.27s-30.24-6-39.45-12l-6.19 25c8.26 4.7 26.48 11.08 45.07 11.08 30.81 0 52-16.34 52-40.38-.01-18.26-11.24-28.78-34.38-35.35zm120.51 27.8h26.3v16.71c-6.95 4.14-16.34 6.76-26.48 6.76-24.42 0-42.45-15-42.45-41.13 0-26.48 18-41.51 41.32-41.51 15 0 26.86 4.7 36.81 13l12.21-20.09c-12.77-10.33-28.92-17.28-49.58-17.28-37.76 0-68 24.41-68 65.92 0 41.13 30.23 65.55 68 65.55 19.53 0 42.63-8.08 54.46-17.47v-53h-52.59z" fill="#fcfcfc"/></svg>