<svg id="Layer_1" data-name="Layer 1" xmlns="http://www.w3.org/2000/svg" viewBox="0 0 195.66 195.66">
  <defs>
    <style>
      .cls-1 {
        fill: #fff;
        stroke-width: 22px;
      }

      .cls-1, .cls-2 {
        stroke: #d7b934;
        stroke-miterlimit: 10;
      }

      .cls-2 {
        fill: #d6b932;
      }
    </style>
  </defs>
  <circle class="cls-1" cx="97.83" cy="97.83" r="86.83"/>
  <g>
    <path class="cls-2" d="M65.07,116.26,52.65,132.88a15.27,15.27,0,0,0-3,8.71,15.48,15.48,0,1,0,30.95.53,15.31,15.31,0,0,0-3.07-9.24ZM64,150.41a8.36,8.36,0,0,1-5.64-13.27l6.71-9,6.7,9a8.25,8.25,0,0,1,1.65,5A8.37,8.37,0,0,1,64,150.41Z" transform="translate(-2.08 -1.81)"/>
    <path class="cls-2" d="M150.41,70.9V63.78H135V59H121.24v-9.5h14.92V42.4h-37v7.13h14.92V59H100.38v4.75H76.62a26,26,0,0,0-26,26v18.47H79.49V92.61h20.89v4.75H135V92.61h15.44V85.49H135V70.9ZM76.62,85.49a4.26,4.26,0,0,0-4.26,4.26v11.34H57.77V89.75A18.85,18.85,0,0,1,76.62,70.9h23.76V85.49Zm51.23,4.75H107.51V66.15h20.34Z" transform="translate(-2.08 -1.81)"/>
  </g>
</svg>
