<svg id="Layer_1" data-name="Layer 1" xmlns="http://www.w3.org/2000/svg" viewBox="0 0 195.66 195.66">
  <defs>
    <style>
      .cls-1, .cls-2 {
        fill: #fff;
        stroke: #83b0df;
      }

      .cls-1 {
        stroke-miterlimit: 10;
        stroke-width: 22px;
      }

      .cls-2 {
        stroke-width: 6px;
      }
    </style>
  </defs>
  <circle class="cls-1" cx="97.83" cy="97.83" r="86.83"/>
  <path class="cls-2" d="M64.14,126.07,52.92,141.33a2.23,2.23,0,0,0,.47,3.12h0a2.22,2.22,0,0,0,1.33.45l73.69-.48a2.18,2.18,0,0,0,2.15-2.2,2.12,2.12,0,0,0-.46-1.32l-14.45-17.85a.85.85,0,0,0-.86-.28l-.51.13" transform="translate(-2.08 -1.81)"/>
  <path class="cls-2" d="M51.62,77S54,73.33,55,71.89a26.51,26.51,0,0,1,4.11-5,36.94,36.94,0,0,1,9.45-6.65c3.89-1.89,6-3.69,12.31-4.31l8.1-.81,57.67.16a4.49,4.49,0,0,1,4.49,4.49h0V84.81a4.49,4.49,0,0,1-4.49,4.5h0L128,89.23a47.16,47.16,0,0,1,.42,5,24.37,24.37,0,0,1-.57,6.92,32.38,32.38,0,0,1-3,9.21,40.82,40.82,0,0,1-5,7.82,31.78,31.78,0,0,1-5,5,29,29,0,0,1-7.62,5.12,33.06,33.06,0,0,1-7.28,3.15,29.24,29.24,0,0,1-6.79,1.5,60.61,60.61,0,0,1-8.52.27A38.35,38.35,0,0,1,77.26,132a61,61,0,0,1-8-3.24A19.26,19.26,0,0,1,64,125.91c-2.89-2.26-3.62-2-6.06-5.14a35.66,35.66,0,0,1-6.37-9.16c-1.42-3.42-3.07-8.36-3.07-8.36" transform="translate(-2.08 -1.81)"/>
  <path class="cls-2" d="M74.61,84.74a16,16,0,0,1,1.94-2.25A23.83,23.83,0,0,1,80,80.16a14.56,14.56,0,0,1,4.11-1.62A27.49,27.49,0,0,1,88.76,78a17.35,17.35,0,0,1,4.93,1,16.06,16.06,0,0,1,5.73,3.41,17.54,17.54,0,0,1,2.77,3.6,13.66,13.66,0,0,1,1.86,3.77,22.53,22.53,0,0,1,.72,4.15,15.72,15.72,0,0,1-.11,3,11.34,11.34,0,0,1-.71,3.15,9.39,9.39,0,0,1-1.5,3.14,13.07,13.07,0,0,1-2,3,12.93,12.93,0,0,1-2.55,2.35,13.17,13.17,0,0,1-3.55,1.84,11.56,11.56,0,0,1-3.59,1.08,18.79,18.79,0,0,1-3.18.18,12.55,12.55,0,0,1-3-.36c-1.35-.36-3-.9-3-.9a18.15,18.15,0,0,1-2.05-1.07,9.13,9.13,0,0,1-2.37-1.71,12.36,12.36,0,0,1-2.77-3l-.93-1.7" transform="translate(-2.08 -1.81)"/>
</svg>
