<svg id="Layer_1" data-name="Layer 1" xmlns="http://www.w3.org/2000/svg" viewBox="0 0 195.66 195.66">
  <defs>
    <style>
      .cls-1, .cls-2 {
        fill: #fff;
      }

      .cls-1, .cls-2, .cls-3 {
        stroke: #9fcb81;
      }

      .cls-1 {
        stroke-miterlimit: 10;
        stroke-width: 22px;
      }

      .cls-2, .cls-3 {
        stroke-width: 6px;
      }

      .cls-3 {
        fill: none;
      }
    </style>
  </defs>
  <circle class="cls-1" cx="97.83" cy="97.83" r="86.83"/>
  <path class="cls-2" d="M56.35,93.82v44a3.9,3.9,0,0,0,3.9,3.91,3.85,3.85,0,0,0,2.11-.62l34.49-22a3.91,3.91,0,0,0,0-6.58l-34.49-22a3.91,3.91,0,0,0-6,3.29Zm45.65,22Zm7.13-3.29,34.48-22a3.91,3.91,0,0,1,6,3.29v44a3.9,3.9,0,0,1-3.9,3.91,3.85,3.85,0,0,1-2.11-.62l-34.48-22a3.9,3.9,0,0,1-1.19-5.38A4,4,0,0,1,109.13,112.55ZM103,115.84v-35m-16.25,0a3.9,3.9,0,0,1-2.22-7.12c4.27-2.76,11-4.54,18.47-4.54s14.21,1.78,18.48,4.54a3.9,3.9,0,0,1-2.23,7.12Z" transform="translate(-2.08 -1.81)"/>
  <path class="cls-3" d="M103,69.21v-7.8a3.9,3.9,0,0,0-3.9-3.9h-45a3.9,3.9,0,0,0-2.76,6.67L103,115.84" transform="translate(-2.08 -1.81)"/>
</svg>
