<svg id="Layer_1" data-name="Layer 1" xmlns="http://www.w3.org/2000/svg" viewBox="0 0 195.66 195.66">
  <defs>
    <style>
      .cls-1, .cls-2 {
        fill: #fff;
        stroke: #168139;
      }

      .cls-1 {
        stroke-miterlimit: 10;
        stroke-width: 22px;
      }

      .cls-2 {
        stroke-width: 6px;
      }
    </style>
  </defs>
  <circle class="cls-1" cx="97.83" cy="97.83" r="86.83"/>
  <path class="cls-2" d="M44.77,80.69v52.59a4.49,4.49,0,0,0,6.95,3.79l41.15-26.29a4.5,4.5,0,0,0,1.38-6.22,4.4,4.4,0,0,0-1.38-1.37L51.71,76.89a4.5,4.5,0,0,0-6.94,3.8Zm62.35,22.5,41.17-26.3a4.5,4.5,0,0,1,6.94,3.8v52.59a4.51,4.51,0,0,1-4.48,4.52,4.46,4.46,0,0,1-2.46-.73l-41.17-26.29a4.5,4.5,0,0,1,0-7.59ZM100,107.28V65.85m-19.62-.28a4.5,4.5,0,0,1-2.57-8.22c5-3.39,13.1-5.6,22.19-5.6s17.16,2.21,22.19,5.6a4.5,4.5,0,0,1-2.57,8.22Z" transform="translate(-2.08 -1.81)"/>
</svg>
