<svg id="Livello_1" data-name="Livello 1" xmlns="http://www.w3.org/2000/svg" viewBox="0 0 104 139">
  <defs>
    <style>
      .cls-1, .cls-2, .cls-3 {
        fill: #29d63d;
      }

      .cls-1 {
        isolation: isolate;
        opacity: 0.3;
      }

      .cls-3 {
        fill-rule: evenodd;
      }

      .cls-4 {
        fill: #fff;
      }
    </style>
  </defs>
  <path class="cls-1" d="M79,128.5c0,5.8-12.1,10.5-27,10.5s-27-4.7-27-10.5S37.1,118,52,118,79,122.7,79,128.5Z"/>
  <path class="cls-2" d="M52,124c19.8-27.7,48-38.3,48-71.1C100,26,79.5,4,52,4S4,26,4,52.9C4,85.7,32.2,96.4,52,124Z"/>
  <path class="cls-3" d="M52,128a3.73,3.73,0,0,1-3.2-1.7,143.64,143.64,0,0,0-15.4-17.7c-1.8-1.8-3.6-3.6-5.5-5.3-3.5-3.4-7-6.8-10.2-10.2C7.8,82.5,0,70.7,0,52.9,0,23.9,22.2,0,52,0s52,23.9,52,52.9c0,17.8-7.8,29.6-17.7,40.2-3.2,3.4-6.7,6.8-10.2,10.2-1.8,1.8-3.7,3.6-5.5,5.3a136.65,136.65,0,0,0-15.4,17.7A3.73,3.73,0,0,1,52,128Zm-2.5-7.4c.8,1.1,1.7,2.2,2.5,3.4.8-1.1,1.7-2.3,2.5-3.4,6-7.8,12.7-14.2,19-20.3C87.6,86.7,100,74.6,100,52.9,100,26,79.5,4,52,4S4,26,4,52.9c0,21.7,12.4,33.8,26.5,47.5C36.8,106.4,43.5,112.9,49.5,120.6Z"/>
  <path class="cls-2" d="M40.1,56.5"/>
  <path class="cls-2" d="M52,33.7"/>
  <path class="cls-4" d="M18,78.53H68.34c.49,0,.82.48.82,1.2v1.68c0,.72-.33,1.2-.82,1.2H18c-.49,0-.82-.48-.82-1.2V79.73C17.13,79.13,17.54,78.53,18,78.53Z"/>
  <path class="cls-4" d="M38.61,51.65H31.77a2.41,2.41,0,0,1-2.4-2.4V42.41a2.41,2.41,0,0,1,2.4-2.4h6.84a2.41,2.41,0,0,1,2.4,2.4v6.84A2.41,2.41,0,0,1,38.61,51.65Z"/>
  <path class="cls-4" d="M54.81,51.65H48a2.41,2.41,0,0,1-2.4-2.4V42.41A2.41,2.41,0,0,1,48,40h6.84a2.41,2.41,0,0,1,2.4,2.4v6.84A2.41,2.41,0,0,1,54.81,51.65Z"/>
  <path class="cls-4" d="M38.61,66.53H31.77a2.41,2.41,0,0,1-2.4-2.4V57.29a2.41,2.41,0,0,1,2.4-2.4h6.84a2.41,2.41,0,0,1,2.4,2.4v6.84A2.41,2.41,0,0,1,38.61,66.53Z"/>
  <path class="cls-4" d="M54.81,80.57H48a2.41,2.41,0,0,1-2.4-2.4v-21a2.41,2.41,0,0,1,2.4-2.4h6.84a2.41,2.41,0,0,1,2.4,2.4v21A2.41,2.41,0,0,1,54.81,80.57Z"/>
  <path class="cls-4" d="M63.45,80.09h-2.4c-.72,0-1.2-.31-1.2-.77V31.93c0-.46.48-.76,1.2-.76h2.4c.72,0,1.2.3,1.2.76V79.32C64.65,79.78,64.17,80.09,63.45,80.09Z"/>
  <path class="cls-4" d="M25.29,80.57h-2.4c-.72,0-1.2-.31-1.2-.77V31.93c0-.46.48-.76,1.2-.76h2.4c.72,0,1.2.3,1.2.76V79.8C26.49,80.26,25.89,80.57,25.29,80.57Z"/>
  <path class="cls-4" d="M64.62,32.37v2.4a1.13,1.13,0,0,1-1.2,1.2H22.86a1.13,1.13,0,0,1-1.2-1.2v-2.4a1.13,1.13,0,0,1,1.2-1.2H63.42A1.2,1.2,0,0,1,64.62,32.37Z"/>
  <path class="cls-4" d="M87.69,58.65v2.4a1.1,1.1,0,0,1-1.13,1.2H61.46a1.1,1.1,0,0,1-1.13-1.2v-2.4a1.1,1.1,0,0,1,1.13-1.2h25.1A1.26,1.26,0,0,1,87.69,58.65Z"/>
  <path class="cls-4" d="M78,66.47v2.4c0,.72-.29,1.2-.73,1.2H61.06c-.44,0-.73-.48-.73-1.2v-2.4c0-.72.29-1.2.73-1.2h16.2C77.62,65.27,78,65.87,78,66.47Z"/>
  <path class="cls-4" d="M76,65.27h2.4c.72,0,1.2.27,1.2.67V81c0,.41-.48.68-1.2.68H76c-.72,0-1.2-.27-1.2-.68v-15C74.75,65.6,75.35,65.27,76,65.27Z"/>
  <path class="cls-4" d="M84.09,57.45h2.4c.72,0,1.2.4,1.2,1V80.64c0,.6-.48,1-1.2,1h-2.4c-.72,0-1.2-.4-1.2-1V58.45A1.2,1.2,0,0,1,84.09,57.45Z"/>
  <line class="cls-4" x1="26.49" y1="31.17" x2="36.93" y2="31.17"/>
  <path class="cls-4" d="M29.07,17.9h2.4c.72,0,1.2.27,1.2.68v15c0,.4-.48.68-1.2.68h-2.4c-.72,0-1.2-.28-1.2-.68v-15C27.87,18.24,28.47,17.9,29.07,17.9Z"/>
  <path class="cls-4" d="M37.73,17.9h2.4c.72,0,1.2.27,1.2.68v15c0,.4-.48.68-1.2.68h-2.4c-.72,0-1.2-.28-1.2-.68v-15C36.53,18.24,37.13,17.9,37.73,17.9Z"/>
</svg>
