<svg id="Livello_1" data-name="Livello 1" xmlns="http://www.w3.org/2000/svg" viewBox="0 0 104 139">
  <defs>
    <style>
      .cls-1, .cls-2, .cls-3 {
        fill: #29d63d;
      }

      .cls-1 {
        isolation: isolate;
        opacity: 0.3;
      }

      .cls-3 {
        fill-rule: evenodd;
      }

      .cls-4 {
        fill: #fff;
      }
    </style>
  </defs>
  <path class="cls-1" d="M79,128.5c0,5.8-12.1,10.5-27,10.5s-27-4.7-27-10.5S37.1,118,52,118,79,122.7,79,128.5Z"/>
  <path class="cls-2" d="M52,124c19.8-27.7,48-38.3,48-71.1C100,26,79.5,4,52,4S4,26,4,52.9C4,85.7,32.2,96.4,52,124Z"/>
  <path class="cls-3" d="M52,128a3.74,3.74,0,0,1-3.2-1.7,143.23,143.23,0,0,0-15.4-17.7c-1.8-1.8-3.6-3.6-5.5-5.3-3.5-3.4-7-6.8-10.2-10.2C7.8,82.5,0,70.7,0,52.9,0,23.9,22.2,0,52,0s52,23.9,52,52.9c0,17.8-7.8,29.6-17.7,40.2-3.2,3.4-6.7,6.8-10.2,10.2-1.8,1.8-3.7,3.6-5.5,5.3a137.22,137.22,0,0,0-15.4,17.7A3.74,3.74,0,0,1,52,128Zm-2.5-7.4c.8,1.1,1.7,2.2,2.5,3.4.8-1.1,1.7-2.3,2.5-3.4,6-7.8,12.7-14.2,19-20.3C87.6,86.7,100,74.6,100,52.9,100,26,79.5,4,52,4S4,26,4,52.9c0,21.7,12.4,33.8,26.5,47.5C36.8,106.4,43.5,112.9,49.5,120.6Z"/>
  <path class="cls-2" d="M40.1,56.5"/>
  <path class="cls-2" d="M52,33.7"/>
  <rect class="cls-4" x="20.21" y="82.42" width="63.45" height="3.38" rx="1"/>
  <rect class="cls-4" x="30.41" y="50.35" width="9.69" height="9.69" rx="2"/>
  <rect class="cls-4" x="43.87" y="50.26" width="9.69" height="9.69" rx="2"/>
  <rect class="cls-4" x="30.41" y="37.94" width="9.69" height="9.69" rx="2"/>
  <rect class="cls-4" x="43.87" y="37.94" width="9.69" height="9.69" rx="2"/>
  <rect class="cls-4" x="30.41" y="25.54" width="9.69" height="9.69" rx="2"/>
  <rect class="cls-4" x="43.87" y="25.62" width="9.69" height="9.69" rx="2"/>
  <rect class="cls-4" x="63.05" y="38.13" width="9.69" height="9.69" rx="2"/>
  <rect class="cls-4" x="63.05" y="50.26" width="9.69" height="9.69" rx="2"/>
  <rect class="cls-4" x="30.41" y="62.75" width="9.69" height="9.69" rx="2"/>
  <rect class="cls-4" x="43.87" y="62.58" width="9.69" height="21.53" rx="2"/>
  <rect class="cls-4" x="55.85" y="19.62" width="3.96" height="64.09" rx="1"/>
  <rect class="cls-4" x="24" y="19.62" width="3.96" height="64.49" rx="1"/>
  <rect class="cls-4" x="39.92" y="3.69" width="3.96" height="35.81" rx="1" transform="translate(20.31 63.5) rotate(-90)"/>
  <rect class="cls-4" x="66.3" y="21.62" width="3.96" height="24.16" rx="1" transform="translate(34.58 101.98) rotate(-90)"/>
  <rect class="cls-4" x="76.4" y="31.72" width="3.96" height="52.39" rx="1"/>
</svg>
