<svg id="Livello_1" data-name="Livello 1" xmlns="http://www.w3.org/2000/svg" xmlns:xlink="http://www.w3.org/1999/xlink" viewBox="0 0 298.02 725.09">
  <defs>
    <style>
      .cls-1 {
        fill: #4d4d4d;
      }

      .cls-2 {
        fill: url(#Sfumatura_senza_nome_97);
      }
    </style>
    <linearGradient id="Sfumatura_senza_nome_97" data-name="Sfumatura senza nome 97" x1="148.88" y1="535.77" x2="148.88" y2="720.96" gradientUnits="userSpaceOnUse">
      <stop offset="0" stop-color="#00ceff"/>
      <stop offset="1" stop-color="#092ed4"/>
    </linearGradient>
  </defs>
  <rect class="cls-1" x="0.02" y="25" width="5" height="515" rx="2.5"/>
  <rect class="cls-1" x="293.02" y="25" width="5" height="514" rx="2.5"/>
  <rect class="cls-1" x="154.1" y="-12.77" width="5.76" height="110.63" rx="2.5" transform="translate(59.46 -147) rotate(76.76)"/>
  <rect class="cls-1" x="341.52" y="-13.23" width="5.76" height="110.63" rx="2.5" transform="translate(361.28 -310.52) rotate(103.24)"/>
  <rect class="cls-1" x="248.24" y="-13.76" width="6" height="87.52" rx="2.5" transform="translate(118.26 254.24) rotate(-90)"/>
  <rect class="cls-1" x="168.52" y="540.94" width="5.32" height="231.84" rx="2.5" transform="translate(-451.12 192.73) rotate(-35.3)"/>
  <rect class="cls-1" x="329.9" y="541.02" width="5.32" height="231.84" rx="2.5" transform="translate(121.3 1358.25) rotate(-144.7)"/>
  <polygon class="cls-2" points="4.82 535.77 292.95 535.84 161.85 720.96 135.91 720.89 4.82 535.77"/>
  <rect class="cls-1" x="248.9" y="732.1" width="4.93" height="34.73" rx="1.96" transform="translate(-601.08 973.83) rotate(-90)"/>
</svg>
