<?xml version="1.0" encoding="utf-8"?>
<svg viewBox="0 0 104 139" xmlns="http://www.w3.org/2000/svg">
  <defs>
    <style>.cls-1{isolation:isolate;opacity:0.3;}.cls-2{fill:#00ace1;}.cls-3,.cls-4{fill:#fff;}.cls-3{fill-rule:evenodd;}.cls-5{fill:#689f38;}</style>
  </defs>
  <path class="cls-2" d="M75,44.68" transform="matrix(1, 0, 0, 1, -22.99999999999997, -11)"/>
  <path class="cls-1" d="M102,139.5c0,5.8-12.09,10.5-27,10.5s-27-4.7-27-10.5S60.09,129,75,129,102,133.7,102,139.5Z" transform="matrix(1, 0, 0, 1, -22.99999999999997, -11)"/>
  <path class="cls-2" d="M75,135c19.8-27.65,48-38.32,48-71.11C123,37,102.5,15,75,15S27,37,27,63.89C27,96.68,55.2,107.36,75,135Z" style="fill: rgb(16, 44, 84);" transform="matrix(1, 0, 0, 1, -22.99999999999997, -11)"/>
  <path class="cls-3" d="M75,139a4,4,0,0,1-3.25-1.67,138.88,138.88,0,0,0-15.42-17.65c-1.8-1.8-3.64-3.58-5.47-5.35-3.53-3.42-7-6.82-10.21-10.23C30.78,93.5,23,81.71,23,63.89,23,34.92,45.17,11,75,11s52,23.92,52,52.89c0,17.82-7.77,29.61-17.65,40.21-3.17,3.41-6.67,6.8-10.2,10.22-1.84,1.78-3.67,3.56-5.47,5.35a139.74,139.74,0,0,0-15.43,17.66A4,4,0,0,1,75,139Zm-2.51-7.36c.85,1.1,1.69,2.21,2.51,3.36.82-1.15,1.66-2.26,2.51-3.36,6-7.77,12.67-14.2,19-20.29C110.6,97.65,123,85.64,123,63.89,123,37,102.51,15,75,15S27,37,27,63.89c0,21.74,12.41,33.77,26.54,47.46C59.83,117.45,66.46,123.88,72.49,131.64Z" transform="matrix(1, 0, 0, 1, -22.99999999999997, -11)"/>
  <path class="cls-4" d="M109,63A34,34,0,1,1,75,29,34,34,0,0,1,109,63Z" transform="matrix(1, 0, 0, 1, -22.99999999999997, -11)"/>
  <path class="cls-5" d="M63.06,67.49" transform="matrix(1, 0, 0, 1, -22.99999999999997, -11)"/>
  <path d="M 38.024 28.481 C 35.331 28.481 33.145 30.405 33.145 32.777 L 33.145 70.01 C 33.145 72.382 35.331 74.306 38.024 74.306 L 47.782 74.306 L 47.782 67.146 C 47.782 64.774 49.967 62.85 52.661 62.85 C 55.354 62.85 57.54 64.774 57.54 67.146 L 57.54 74.306 L 67.297 74.306 C 69.991 74.306 72.176 72.382 72.176 70.01 L 72.176 32.777 C 72.176 30.405 69.991 28.481 67.297 28.481 L 38.024 28.481 Z M 39.651 49.962 C 39.651 49.174 40.382 48.529 41.277 48.529 L 44.529 48.529 C 45.424 48.529 46.155 49.174 46.155 49.962 L 46.155 52.825 C 46.155 53.613 45.424 54.258 44.529 54.258 L 41.277 54.258 C 40.382 54.258 39.651 53.613 39.651 52.825 L 39.651 49.962 Z M 51.034 48.529 L 54.287 48.529 C 55.181 48.529 55.913 49.174 55.913 49.962 L 55.913 52.825 C 55.913 53.613 55.181 54.258 54.287 54.258 L 51.034 54.258 C 50.14 54.258 49.408 53.613 49.408 52.825 L 49.408 49.962 C 49.408 49.174 50.14 48.529 51.034 48.529 Z M 59.166 49.962 C 59.166 49.174 59.897 48.529 60.792 48.529 L 64.044 48.529 C 64.939 48.529 65.671 49.174 65.671 49.962 L 65.671 52.825 C 65.671 53.613 64.939 54.258 64.044 54.258 L 60.792 54.258 C 59.897 54.258 59.166 53.613 59.166 52.825 L 59.166 49.962 Z M 41.277 37.073 L 44.529 37.073 C 45.424 37.073 46.155 37.717 46.155 38.505 L 46.155 41.369 C 46.155 42.157 45.424 42.802 44.529 42.802 L 41.277 42.802 C 40.382 42.802 39.651 42.157 39.651 41.369 L 39.651 38.505 C 39.651 37.717 40.382 37.073 41.277 37.073 Z M 49.408 38.505 C 49.408 37.717 50.14 37.073 51.034 37.073 L 54.287 37.073 C 55.181 37.073 55.913 37.717 55.913 38.505 L 55.913 41.369 C 55.913 42.157 55.181 42.802 54.287 42.802 L 51.034 42.802 C 50.14 42.802 49.408 42.157 49.408 41.369 L 49.408 38.505 Z M 60.792 37.073 L 64.044 37.073 C 64.939 37.073 65.671 37.717 65.671 38.505 L 65.671 41.369 C 65.671 42.157 64.939 42.802 64.044 42.802 L 60.792 42.802 C 59.897 42.802 59.166 42.157 59.166 41.369 L 59.166 38.505 C 59.166 37.717 59.897 37.073 60.792 37.073 Z" style="fill: rgb(16, 44, 84);" transform="matrix(1, 0, 0, 1, 2.842170943040401e-14, 0)"/>
</svg>