<?xml version="1.0" encoding="utf-8"?>
<svg viewBox="0 0 104 139" xmlns="http://www.w3.org/2000/svg">
  <defs>
    <style>.cls-1{isolation:isolate;opacity:0.3;}.cls-2{fill:#ffb600;}.cls-3,.cls-4{fill:#fff;}.cls-3{fill-rule:evenodd;}.cls-5{fill:#689f38;}.cls-6{fill:#00ace1;}</style>
  </defs>
  <path class="cls-1" d="M79,128.5c0,5.8-12.09,10.5-27,10.5s-27-4.7-27-10.5S37.09,118,52,118,79,122.7,79,128.5Z"/>
  <path class="cls-2" d="M52,124c19.8-27.65,48-38.32,48-71.11C100,26,79.5,4,52,4S4,26,4,52.89C4,85.68,32.2,96.36,52,124Z"/>
  <path class="cls-3" d="M52,128a4,4,0,0,1-3.25-1.67,138.39,138.39,0,0,0-15.42-17.65c-1.8-1.8-3.64-3.58-5.47-5.35-3.53-3.42-7-6.82-10.21-10.23C7.78,82.5,0,70.71,0,52.89,0,23.92,22.17,0,52,0s52,23.92,52,52.89c0,17.82-7.77,29.61-17.65,40.21-3.17,3.41-6.67,6.8-10.2,10.22-1.84,1.78-3.67,3.56-5.47,5.35a139.34,139.34,0,0,0-15.43,17.66A4,4,0,0,1,52,128Zm-2.51-7.36c.85,1.1,1.69,2.21,2.51,3.36.82-1.15,1.66-2.26,2.51-3.36,6-7.77,12.67-14.2,19-20.29C87.6,86.65,100,74.64,100,52.89,100,26,79.51,4,52,4S4,26,4,52.89c0,21.74,12.41,33.77,26.54,47.46C36.83,106.45,43.46,112.88,49.49,120.64Z"/>
  <path class="cls-4" d="M86,52A34,34,0,1,1,52,18,34,34,0,0,1,86,52Z"/>
  <path class="cls-5" d="M40.06,56.49"/>
  <path class="cls-6" d="M52,33.68"/>
  <path class="cls-2" d="M38.14,27.64c-.24.26-1.54,1.91-2.93,3.67s-3.41,4.36-4.54,5.79L28.45,40a.42.42,0,0,0,0,.54c.13.29.26.3,2.66.3s2.53,0,2.44.25-1,2.17-2.19,4.52a34.87,34.87,0,0,0-2.07,4.57c.08.58.65.44,1.4-.31l5.24-5.33c2.5-2.55,4.93-5,5.41-5.5.84-.87,1-1.21.66-1.52a16.41,16.41,0,0,0-3.38-.19l-3.21,0,1.89-4.61c1-2.54,1.89-4.73,1.89-4.86,0-.29-.25-.6-.48-.6A1.49,1.49,0,0,0,38.14,27.64Zm-2.85,7c-.7,1.74-1.29,3.19-1.29,3.24a1,1,0,0,0,.14.3c.11.18.65.23,3.08.29l3,.07-2.9,3c-4.39,4.49-5.52,5.6-5.37,5.29s.82-1.67,1.66-3.35a33.94,33.94,0,0,0,1.51-3.29c0-.42-.42-.5-2.65-.47a15.47,15.47,0,0,1-2.27,0,24.62,24.62,0,0,1,2-2.76l3.22-4.11a16.24,16.24,0,0,1,1.13-1.36S36,32.92,35.29,34.65Z"/>
  <path class="cls-2" d="M47.26,37.32c0,.07-.8,2.9-1.7,6.26S43,53.19,41.9,57.43s-2.08,7.87-2.12,8.06.11.59.82,1.56l.89,1.22,6.9.07,6.89.07,0,1,0,1H54.7a3.7,3.7,0,0,0-3.8,3.28c-.06.56,0,.71.17.87.38.29,14.71.29,15.09,0s.07-2-.8-3a3.28,3.28,0,0,0-2.49-1.15l-1-.08,0-1,0-1,2-.07,2-.07.15-.51c.1-.27.8-3,1.61-5.94s2.38-9,3.53-13.41l2.11-8-.79-1.61-.8-1.59-12.24,0C51.81,37.19,47.31,37.22,47.26,37.32Zm7,1.16c0,.12-.88,3.58-1.3,5.1-.07.25-.34.26-3.2.26a23.36,23.36,0,0,1-3.11-.1s.31-1.29.69-2.75l.71-2.65h3.1A14.18,14.18,0,0,1,54.26,38.48Zm8.36.18c0,.18-.36,1.4-.72,2.72l-.64,2.39-3.65,0c-2.9,0-3.63,0-3.59-.15s.36-1.35.73-2.75l.67-2.58h7.27Zm8.07-.08c0,.15-.37,1.39-.72,2.76l-.66,2.5H65.86a15.54,15.54,0,0,1-3.44-.14c0-.09.31-1.33.69-2.75l.71-2.61h3.47C70.51,38.34,70.74,38.35,70.69,38.58Zm1.44,1.64c.15.32.07.74-.7,3.62C71,45.64,69.8,50,68.86,53.56c-3.22,12.16-3.58,13.52-3.64,13.58s-5.23,0-11.58,0H42.11l-.32-.32a1.12,1.12,0,0,1-.31-.43c0-.06,5.1-.12,11.33-.12,8.86,0,11.38,0,11.54-.19s1.51-5.1,3.58-12.93c1.83-7,3.42-13,3.5-13.32.14-.5.17-.53.34-.29S72,40,72.13,40.22ZM52.44,45.06a25.09,25.09,0,0,1-.73,3.22l-.81,3-3,0c-1.64,0-3,0-3.15,0s-.13-.18,0-.47.44-1.61.82-3.09.73-2.73.77-2.8a23.15,23.15,0,0,1,3.05-.1C51.79,44.86,52.39,44.9,52.44,45.06ZM60.75,45c.12.08,0,.89-.66,3.26l-.82,3.14H55.68c-2.94,0-3.59,0-3.59-.2s.73-3,1.37-5.34l.26-1h3.44A32.27,32.27,0,0,1,60.75,45Zm8.2.07c0,.1-.28,1.22-.62,2.49s-.72,2.67-.83,3.07l-.2.77H63.83c-3.23,0-3.46,0-3.4-.26s.39-1.45.77-2.93.74-2.82.81-3,.16-.32,3.52-.32C68.13,44.87,69,44.92,69,45.05ZM50.54,52.64c0,.15-.38,1.47-.77,3S49,58.31,49,58.38a25.61,25.61,0,0,1-3.17.08l-3.06-.05.58-2.17c.31-1.21.66-2.55.8-3l.23-.82h3.13C50.4,52.4,50.6,52.41,50.54,52.64Zm8.34,0c0,.16-1,4.16-1.44,5.62-.06.25-.36.26-3.67.26a18.78,18.78,0,0,1-3.59-.14c0-.23,1.38-5.42,1.51-5.7s.44-.24,3.66-.24C58.27,52.4,58.88,52.43,58.88,52.6Zm8.05-.13a27.06,27.06,0,0,1-.72,3l-.77,2.93L62,58.46l-3.48,0,.27-1c.7-2.67,1.23-4.7,1.28-4.87s.86-.17,3.44-.17C65.34,52.4,66.89,52.43,66.93,52.47ZM48.62,60c-.06.19-.37,1.41-.72,2.73l-.64,2.39-3.18,0c-2.64,0-3.16,0-3.1-.16s.35-1.27.69-2.58.67-2.46.69-2.56.81-.18,3.2-.18h3.13ZM57,59.82c0,.16-.5,2.16-1.1,4.35l-.27,1H52c-2.61,0-3.61,0-3.61-.16s.63-2.58,1.31-5.1c.07-.23.37-.25,3.67-.25C56.1,59.64,57,59.69,57,59.82Zm7.86.87c-.16.58-.48,1.81-.72,2.72l-.44,1.67-3.49,0c-2.79,0-3.49,0-3.44-.14s.35-1.31.71-2.65.66-2.51.7-2.58a29.19,29.19,0,0,1,3.51-.11h3.44Zm-3.92,8.67v1H56.3v-.91a3,3,0,0,1,.1-1,13.65,13.65,0,0,1,2.31-.1h2.21Zm2.72,2.32a2.75,2.75,0,0,1,1.49,1.47l.15.41h-6.6c-6.46,0-6.59,0-6.59-.29a2.65,2.65,0,0,1,1.25-1.49c.38-.21,1.11-.25,5.14-.25A49.06,49.06,0,0,1,63.64,71.68Z"/>
</svg>