<?xml version="1.0" encoding="utf-8"?>
<svg viewBox="0 0 104 139" xmlns="http://www.w3.org/2000/svg">
  <defs>
    <style>.cls-1{isolation:isolate;opacity:0.3;}.cls-2{fill:#00ace1;}.cls-3,.cls-4{fill:#fff;}.cls-3{fill-rule:evenodd;}.cls-5{fill:#689f38;}</style>
  </defs>
  <path class="cls-2" d="M75,44.68" transform="matrix(1, 0, 0, 1, -22.99999999999997, -11)"/>
  <path class="cls-1" d="M102,139.5c0,5.8-12.09,10.5-27,10.5s-27-4.7-27-10.5S60.09,129,75,129,102,133.7,102,139.5Z" transform="matrix(1, 0, 0, 1, -22.99999999999997, -11)"/>
  <path class="cls-2" d="M75,135c19.8-27.65,48-38.32,48-71.11C123,37,102.5,15,75,15S27,37,27,63.89C27,96.68,55.2,107.36,75,135Z" style="fill: rgb(42, 147, 213);" transform="matrix(1, 0, 0, 1, -22.99999999999997, -11)"/>
  <path class="cls-3" d="M75,139a4,4,0,0,1-3.25-1.67,138.88,138.88,0,0,0-15.42-17.65c-1.8-1.8-3.64-3.58-5.47-5.35-3.53-3.42-7-6.82-10.21-10.23C30.78,93.5,23,81.71,23,63.89,23,34.92,45.17,11,75,11s52,23.92,52,52.89c0,17.82-7.77,29.61-17.65,40.21-3.17,3.41-6.67,6.8-10.2,10.22-1.84,1.78-3.67,3.56-5.47,5.35a139.74,139.74,0,0,0-15.43,17.66A4,4,0,0,1,75,139Zm-2.51-7.36c.85,1.1,1.69,2.21,2.51,3.36.82-1.15,1.66-2.26,2.51-3.36,6-7.77,12.67-14.2,19-20.29C110.6,97.65,123,85.64,123,63.89,123,37,102.51,15,75,15S27,37,27,63.89c0,21.74,12.41,33.77,26.54,47.46C59.83,117.45,66.46,123.88,72.49,131.64Z" transform="matrix(1, 0, 0, 1, -22.99999999999997, -11)"/>
  <path class="cls-4" d="M109,63A34,34,0,1,1,75,29,34,34,0,0,1,109,63Z" transform="matrix(1, 0, 0, 1, -22.99999999999997, -11)"/>
  <path class="cls-5" d="M63.06,67.49" transform="matrix(1, 0, 0, 1, -22.99999999999997, -11)"/>
  <path d="M 34.839 31.134 C 33.441 31.134 32.312 32.372 32.312 33.902 L 32.312 54.663 L 32.312 58.816 L 32.312 65.736 C 32.312 68.029 34.011 69.89 36.103 69.89 L 68.951 69.89 C 71.043 69.89 72.74 68.029 72.74 65.736 L 72.74 54.663 L 72.74 41.533 C 72.74 39.957 71.208 38.963 69.945 39.707 L 57.579 47 L 57.579 41.533 C 57.579 39.957 56.048 38.963 54.784 39.707 L 42.42 47 L 42.42 33.902 C 42.42 32.372 41.292 31.134 39.893 31.134 L 34.839 31.134 Z" style="fill: rgb(42, 147, 213);" transform="matrix(1, 0, 0, 1, 2.842170943040401e-14, 0)"/>
</svg>