<?xml version="1.0" encoding="utf-8"?>
<svg viewBox="0 0 104 139" xmlns="http://www.w3.org/2000/svg">
  <defs>
    <style>.cls-1{isolation:isolate;opacity:0.3;}.cls-2{fill:#00ace1;}.cls-3,.cls-4{fill:#fff;}.cls-3{fill-rule:evenodd;}.cls-5{fill:#689f38;}</style>
  </defs>
  <path class="cls-2" d="M75,44.68" transform="matrix(1, 0, 0, 1, -23, -11)"/>
  <path class="cls-1" d="M102,139.5c0,5.8-12.09,10.5-27,10.5s-27-4.7-27-10.5S60.09,129,75,129,102,133.7,102,139.5Z" transform="matrix(1, 0, 0, 1, -23, -11)"/>
  <path class="cls-2" d="M75,135c19.8-27.65,48-38.32,48-71.11C123,37,102.5,15,75,15S27,37,27,63.89C27,96.68,55.2,107.36,75,135Z" style="fill: rgb(255, 173, 29);" transform="matrix(1, 0, 0, 1, -23, -11)"/>
  <path class="cls-3" d="M75,139a4,4,0,0,1-3.25-1.67,138.88,138.88,0,0,0-15.42-17.65c-1.8-1.8-3.64-3.58-5.47-5.35-3.53-3.42-7-6.82-10.21-10.23C30.78,93.5,23,81.71,23,63.89,23,34.92,45.17,11,75,11s52,23.92,52,52.89c0,17.82-7.77,29.61-17.65,40.21-3.17,3.41-6.67,6.8-10.2,10.22-1.84,1.78-3.67,3.56-5.47,5.35a139.74,139.74,0,0,0-15.43,17.66A4,4,0,0,1,75,139Zm-2.51-7.36c.85,1.1,1.69,2.21,2.51,3.36.82-1.15,1.66-2.26,2.51-3.36,6-7.77,12.67-14.2,19-20.29C110.6,97.65,123,85.64,123,63.89,123,37,102.51,15,75,15S27,37,27,63.89c0,21.74,12.41,33.77,26.54,47.46C59.83,117.45,66.46,123.88,72.49,131.64Z" transform="matrix(1, 0, 0, 1, -23, -11)"/>
  <path class="cls-4" d="M109,63A34,34,0,1,1,75,29,34,34,0,0,1,109,63Z" transform="matrix(1, 0, 0, 1, -23, -11)"/>
  <path class="cls-5" d="M63.06,67.49" transform="matrix(1, 0, 0, 1, -23, -11)"/>
  <path d="M 52.313 33.724 C 49.789 33.724 47.741 35.677 47.741 38.084 L 47.741 53.023 C 47.741 54.595 47.064 55.92 46.283 56.883 C 45.283 58.118 44.692 59.653 44.692 61.334 C 44.692 65.348 48.102 68.599 52.313 68.599 C 56.524 68.599 59.934 65.348 59.934 61.334 C 59.934 59.653 59.344 58.118 58.343 56.893 C 57.562 55.93 56.886 54.604 56.886 53.033 L 56.886 38.084 C 56.886 35.677 54.838 33.724 52.313 33.724 Z M 41.644 38.084 C 41.644 32.471 46.416 27.912 52.313 27.912 C 58.21 27.912 62.983 32.462 62.983 38.084 L 62.983 53.023 C 62.983 53.033 62.992 53.051 63.001 53.078 C 63.021 53.132 63.078 53.223 63.164 53.332 C 64.964 55.548 66.031 58.328 66.031 61.334 C 66.031 68.554 59.886 74.412 52.313 74.412 C 44.74 74.412 38.595 68.554 38.595 61.334 C 38.595 58.319 39.662 55.54 41.463 53.332 C 41.548 53.223 41.605 53.132 41.625 53.078 C 41.634 53.051 41.644 53.033 41.644 53.023 L 41.644 38.084 Z M 56.886 61.334 C 56.886 63.741 54.838 65.693 52.313 65.693 C 49.789 65.693 47.741 63.741 47.741 61.334 C 47.741 59.435 49.017 57.819 50.789 57.22 L 50.789 40.99 C 50.789 40.191 51.475 39.537 52.313 39.537 C 53.152 39.537 53.837 40.191 53.837 40.99 L 53.837 57.22 C 55.609 57.819 56.886 59.435 56.886 61.334 Z" style="fill: rgb(255, 173, 29);"/>
</svg>