<?xml version="1.0" encoding="utf-8"?>
<svg viewBox="0 0 104 139" xmlns="http://www.w3.org/2000/svg">
  <defs>
    <style>.cls-1{isolation:isolate;opacity:0.3;}.cls-2{fill:#00ace1;}.cls-3,.cls-4{fill:#fff;}.cls-3{fill-rule:evenodd;}.cls-5{fill:#689f38;}</style>
  </defs>
  <path class="cls-2" d="M75,44.68" transform="matrix(0.9999999999999999, 0, 0, 0.9999999999999999, -23, -11)"/>
  <path class="cls-1" d="M102,139.5c0,5.8-12.09,10.5-27,10.5s-27-4.7-27-10.5S60.09,129,75,129,102,133.7,102,139.5Z" transform="matrix(0.9999999999999999, 0, 0, 0.9999999999999999, -23, -11)"/>
  <path class="cls-2" d="M75,135c19.8-27.65,48-38.32,48-71.11C123,37,102.5,15,75,15S27,37,27,63.89C27,96.68,55.2,107.36,75,135Z" style="fill: rgb(65, 105, 225);" transform="matrix(0.9999999999999999, 0, 0, 0.9999999999999999, -23, -11)"/>
  <path class="cls-3" d="M75,139a4,4,0,0,1-3.25-1.67,138.88,138.88,0,0,0-15.42-17.65c-1.8-1.8-3.64-3.58-5.47-5.35-3.53-3.42-7-6.82-10.21-10.23C30.78,93.5,23,81.71,23,63.89,23,34.92,45.17,11,75,11s52,23.92,52,52.89c0,17.82-7.77,29.61-17.65,40.21-3.17,3.41-6.67,6.8-10.2,10.22-1.84,1.78-3.67,3.56-5.47,5.35a139.74,139.74,0,0,0-15.43,17.66A4,4,0,0,1,75,139Zm-2.51-7.36c.85,1.1,1.69,2.21,2.51,3.36.82-1.15,1.66-2.26,2.51-3.36,6-7.77,12.67-14.2,19-20.29C110.6,97.65,123,85.64,123,63.89,123,37,102.51,15,75,15S27,37,27,63.89c0,21.74,12.41,33.77,26.54,47.46C59.83,117.45,66.46,123.88,72.49,131.64Z" transform="matrix(0.9999999999999999, 0, 0, 0.9999999999999999, -23, -11)"/>
  <path class="cls-4" d="M109,63A34,34,0,1,1,75,29,34,34,0,0,1,109,63Z" transform="matrix(0.9999999999999999, 0, 0, 0.9999999999999999, -23, -11)"/>
  <path class="cls-5" d="M63.06,67.49" transform="matrix(0.9999999999999999, 0, 0, 0.9999999999999999, -23, -11)"/>
  <path d="M 78.633 47.868 C 78.633 49.598 77.291 50.954 75.771 50.954 L 72.907 50.954 L 72.97 66.356 C 72.97 66.616 72.952 66.875 72.925 67.134 L 72.925 68.682 C 72.925 70.807 71.324 72.527 69.346 72.527 L 67.915 72.527 C 67.817 72.527 67.718 72.527 67.62 72.518 C 67.494 72.527 67.369 72.527 67.244 72.527 L 64.336 72.527 L 62.189 72.527 C 60.212 72.527 58.61 70.807 58.61 68.682 L 58.61 66.375 L 58.61 60.222 C 58.61 58.52 57.33 57.146 55.747 57.146 L 50.021 57.146 C 48.437 57.146 47.158 58.52 47.158 60.222 L 47.158 66.375 L 47.158 68.682 C 47.158 70.807 45.556 72.527 43.579 72.527 L 41.431 72.527 L 38.578 72.527 C 38.443 72.527 38.309 72.518 38.175 72.508 C 38.067 72.518 37.96 72.527 37.853 72.527 L 36.421 72.527 C 34.444 72.527 32.843 70.807 32.843 68.682 L 32.843 57.915 C 32.843 57.828 32.843 57.732 32.851 57.645 L 32.851 50.954 L 29.98 50.954 C 28.369 50.954 27.116 49.608 27.116 47.868 C 27.116 47.003 27.385 46.234 28.012 45.561 L 50.951 24.074 C 51.578 23.4 52.293 23.304 52.919 23.304 C 53.546 23.304 54.262 23.497 54.799 23.978 L 77.649 45.561 C 78.365 46.234 78.723 47.003 78.633 47.868 Z" style="fill: rgb(65, 105, 225);" transform="matrix(0.9999999999999999, 0, 0, 0.9999999999999999, 0, 0)"/>
</svg>