<?xml version="1.0" encoding="utf-8"?>
<svg viewBox="0 0 104 139" xmlns="http://www.w3.org/2000/svg">
  <defs>
    <style>.cls-1{isolation:isolate;opacity:0.3;}.cls-2{fill:#00ace1;}.cls-3,.cls-4{fill:#fff;}.cls-3{fill-rule:evenodd;}.cls-5{fill:#689f38;}</style>
  </defs>
  <path class="cls-2" d="M75,44.68" transform="matrix(1, 0, 0, 1, -23, -11)"/>
  <path class="cls-1" d="M102,139.5c0,5.8-12.09,10.5-27,10.5s-27-4.7-27-10.5S60.09,129,75,129,102,133.7,102,139.5Z" transform="matrix(1, 0, 0, 1, -23, -11)"/>
  <path class="cls-2" d="M75,135c19.8-27.65,48-38.32,48-71.11C123,37,102.5,15,75,15S27,37,27,63.89C27,96.68,55.2,107.36,75,135Z" style="fill: rgb(0, 174, 238);" transform="matrix(1, 0, 0, 1, -23, -11)"/>
  <path class="cls-3" d="M75,139a4,4,0,0,1-3.25-1.67,138.88,138.88,0,0,0-15.42-17.65c-1.8-1.8-3.64-3.58-5.47-5.35-3.53-3.42-7-6.82-10.21-10.23C30.78,93.5,23,81.71,23,63.89,23,34.92,45.17,11,75,11s52,23.92,52,52.89c0,17.82-7.77,29.61-17.65,40.21-3.17,3.41-6.67,6.8-10.2,10.22-1.84,1.78-3.67,3.56-5.47,5.35a139.74,139.74,0,0,0-15.43,17.66A4,4,0,0,1,75,139Zm-2.51-7.36c.85,1.1,1.69,2.21,2.51,3.36.82-1.15,1.66-2.26,2.51-3.36,6-7.77,12.67-14.2,19-20.29C110.6,97.65,123,85.64,123,63.89,123,37,102.51,15,75,15S27,37,27,63.89c0,21.74,12.41,33.77,26.54,47.46C59.83,117.45,66.46,123.88,72.49,131.64Z" transform="matrix(1, 0, 0, 1, -23, -11)"/>
  <path class="cls-4" d="M109,63A34,34,0,1,1,75,29,34,34,0,0,1,109,63Z" transform="matrix(1, 0, 0, 1, -23, -11)"/>
  <path class="cls-5" d="M63.06,67.49" transform="matrix(1, 0, 0, 1, -23, -11)"/>
  <path d="M 70.944 60.514 C 74.206 61.209 76.637 63.858 76.637 67.026 C 76.637 70.721 73.329 73.714 69.243 73.714 C 65.233 73.714 61.97 70.83 61.85 67.236 L 44.864 61.083 C 43.524 62.279 41.695 63.014 39.67 63.014 C 35.585 63.014 32.277 60.022 32.277 56.327 C 32.277 52.631 35.585 49.639 39.67 49.639 C 40.798 49.639 41.869 49.865 42.822 50.274 L 56.278 39.625 C 56.056 38.989 55.936 38.304 55.936 37.602 C 55.936 33.907 59.244 30.914 63.329 30.914 C 67.414 30.914 70.722 33.907 70.722 37.602 C 70.722 39.917 69.429 41.956 67.451 43.152 L 70.944 60.514 Z M 46.722 54.304 C 46.925 54.881 47.045 55.491 47.064 56.117 L 64.05 62.261 C 64.383 61.969 64.734 61.701 65.122 61.467 L 61.628 44.114 C 61.121 44.005 60.63 43.854 60.168 43.653 L 46.722 54.304 Z" style="fill: rgb(0, 174, 238); transform-origin: 54.457px 52.314px;" transform="matrix(-1, 0, 0, -1, 0.000007629395, -0.000007629395)"/>
</svg>