<?xml version="1.0" encoding="utf-8"?>
<svg viewBox="0 0 104 139" xmlns="http://www.w3.org/2000/svg">
  <defs>
    <style>.cls-1{isolation:isolate;opacity:0.3;}.cls-2{fill:#00ace1;}.cls-3,.cls-4{fill:#fff;}.cls-3{fill-rule:evenodd;}.cls-5{fill:#689f38;}</style>
  </defs>
  <path class="cls-2" d="M75,44.68" transform="matrix(1, 0, 0, 1, -23, -10.999999999999993)"/>
  <path class="cls-1" d="M102,139.5c0,5.8-12.09,10.5-27,10.5s-27-4.7-27-10.5S60.09,129,75,129,102,133.7,102,139.5Z" transform="matrix(1, 0, 0, 1, -23, -10.999999999999993)"/>
  <path class="cls-2" d="M75,135c19.8-27.65,48-38.32,48-71.11C123,37,102.5,15,75,15S27,37,27,63.89C27,96.68,55.2,107.36,75,135Z" style="fill: rgb(255, 153, 0);" transform="matrix(1, 0, 0, 1, -23, -10.999999999999993)"/>
  <path class="cls-3" d="M75,139a4,4,0,0,1-3.25-1.67,138.88,138.88,0,0,0-15.42-17.65c-1.8-1.8-3.64-3.58-5.47-5.35-3.53-3.42-7-6.82-10.21-10.23C30.78,93.5,23,81.71,23,63.89,23,34.92,45.17,11,75,11s52,23.92,52,52.89c0,17.82-7.77,29.61-17.65,40.21-3.17,3.41-6.67,6.8-10.2,10.22-1.84,1.78-3.67,3.56-5.47,5.35a139.74,139.74,0,0,0-15.43,17.66A4,4,0,0,1,75,139Zm-2.51-7.36c.85,1.1,1.69,2.21,2.51,3.36.82-1.15,1.66-2.26,2.51-3.36,6-7.77,12.67-14.2,19-20.29C110.6,97.65,123,85.64,123,63.89,123,37,102.51,15,75,15S27,37,27,63.89c0,21.74,12.41,33.77,26.54,47.46C59.83,117.45,66.46,123.88,72.49,131.64Z" transform="matrix(1, 0, 0, 1, -23, -10.999999999999993)"/>
  <path class="cls-4" d="M109,63A34,34,0,1,1,75,29,34,34,0,0,1,109,63Z" transform="matrix(1, 0, 0, 1, -23, -10.999999999999993)"/>
  <path class="cls-5" d="M63.06,67.49" transform="matrix(1, 0, 0, 1, -23, -10.999999999999993)"/>
  <path d="M 47.405 31.027 C 48.005 30.445 48.937 30.453 49.539 31.035 C 51.664 33.103 53.659 35.329 55.522 37.74 C 56.37 36.59 57.333 35.337 58.372 34.316 C 58.98 33.725 59.92 33.725 60.529 34.325 C 63.194 36.957 65.451 40.438 67.037 43.743 C 68.6 46.998 69.64 50.327 69.64 52.673 C 69.64 62.858 61.954 71.463 52.388 71.463 C 42.715 71.463 35.136 62.851 35.136 52.666 C 35.136 49.601 36.506 45.857 38.632 42.154 C 40.781 38.395 43.816 34.476 47.405 31.027 Z M 52.519 63.8 C 54.468 63.8 56.194 63.241 57.818 62.124 C 61.061 59.777 61.93 55.085 59.982 51.396 C 59.635 50.678 58.751 50.631 58.249 51.237 L 56.308 53.576 C 55.8 54.182 54.884 54.166 54.406 53.536 C 53.135 51.86 50.864 48.866 49.569 47.167 C 49.084 46.528 48.159 46.52 47.667 47.158 C 45.063 50.551 43.755 52.691 43.755 55.092 C 43.762 60.56 47.66 63.8 52.519 63.8 Z" style="fill: rgb(255, 153, 0);" transform="matrix(1, 0, 0, 1, 0, 7.105427357601002e-15)"/>
</svg>