<?xml version="1.0" encoding="utf-8"?>
<svg viewBox="0 0 104 139" xmlns="http://www.w3.org/2000/svg">
  <defs>
    <style>.cls-1{isolation:isolate;opacity:0.3;}.cls-2{fill:#00ace1;}.cls-3,.cls-4{fill:#fff;}.cls-3{fill-rule:evenodd;}.cls-5{fill:#689f38;}</style>
  </defs>
  <path class="cls-2" d="M75,44.68" transform="matrix(1, 0, 0, 1, -23, -11)"/>
  <path class="cls-1" d="M102,139.5c0,5.8-12.09,10.5-27,10.5s-27-4.7-27-10.5S60.09,129,75,129,102,133.7,102,139.5Z" transform="matrix(1, 0, 0, 1, -23, -11)"/>
  <path class="cls-2" d="M75,135c19.8-27.65,48-38.32,48-71.11C123,37,102.5,15,75,15S27,37,27,63.89C27,96.68,55.2,107.36,75,135Z" style="fill: rgb(34, 149, 107);" transform="matrix(1, 0, 0, 1, -23, -11)"/>
  <path class="cls-3" d="M75,139a4,4,0,0,1-3.25-1.67,138.88,138.88,0,0,0-15.42-17.65c-1.8-1.8-3.64-3.58-5.47-5.35-3.53-3.42-7-6.82-10.21-10.23C30.78,93.5,23,81.71,23,63.89,23,34.92,45.17,11,75,11s52,23.92,52,52.89c0,17.82-7.77,29.61-17.65,40.21-3.17,3.41-6.67,6.8-10.2,10.22-1.84,1.78-3.67,3.56-5.47,5.35a139.74,139.74,0,0,0-15.43,17.66A4,4,0,0,1,75,139Zm-2.51-7.36c.85,1.1,1.69,2.21,2.51,3.36.82-1.15,1.66-2.26,2.51-3.36,6-7.77,12.67-14.2,19-20.29C110.6,97.65,123,85.64,123,63.89,123,37,102.51,15,75,15S27,37,27,63.89c0,21.74,12.41,33.77,26.54,47.46C59.83,117.45,66.46,123.88,72.49,131.64Z" transform="matrix(1, 0, 0, 1, -23, -11)"/>
  <path class="cls-4" d="M109,63A34,34,0,1,1,75,29,34,34,0,0,1,109,63Z" transform="matrix(1, 0, 0, 1, -23, -11)"/>
  <path class="cls-5" d="M63.06,67.49" transform="matrix(1, 0, 0, 1, -23, -11)"/>
  <path d="M 60.474 64.781 C 61.466 61.74 63.523 59.147 65.559 56.563 C 66.097 55.886 66.635 55.21 67.151 54.523 C 69.198 51.806 70.397 48.516 70.397 44.96 C 70.397 35.684 62.252 28.171 52.204 28.171 C 42.156 28.171 34.011 35.684 34.011 44.951 C 34.011 48.507 35.21 51.806 37.256 54.513 C 37.773 55.2 38.311 55.877 38.848 56.553 C 40.895 59.137 42.952 61.74 43.934 64.772 L 60.474 64.772 L 60.474 64.781 Z M 52.204 76.985 C 56.773 76.985 60.474 73.572 60.474 69.358 L 60.474 67.832 L 43.934 67.832 L 43.934 69.358 C 43.934 73.572 47.635 76.985 52.204 76.985 Z M 43.934 44.951 C 43.934 45.79 43.19 46.476 42.28 46.476 C 41.371 46.476 40.627 45.79 40.627 44.951 C 40.627 39.05 45.805 34.273 52.204 34.273 C 53.114 34.273 53.858 34.959 53.858 35.798 C 53.858 36.637 53.114 37.323 52.204 37.323 C 47.635 37.323 43.934 40.737 43.934 44.951 Z" style="fill: rgb(34, 149, 107);"/>
</svg>