<?xml version="1.0" encoding="UTF-8"?>
<!DOCTYPE svg PUBLIC "-//W3C//DTD SVG 1.1//EN" "http://www.w3.org/Graphics/SVG/1.1/DTD/svg11.dtd">
<svg xmlns="http://www.w3.org/2000/svg" version="1.1" width="1000px" height="1333px" style="shape-rendering:geometricPrecision; text-rendering:geometricPrecision; image-rendering:optimizeQuality; fill-rule:evenodd; clip-rule:evenodd" xmlns:xlink="http://www.w3.org/1999/xlink">
<g><path style="opacity:0.988" fill="#fdfefe" d="M 588.5,1133.5 C 567.053,1158.12 546.886,1183.79 528,1210.5C 512.302,1225.63 495.136,1227.47 476.5,1216C 459.667,1194.5 442.833,1173 426,1151.5C 420.634,1145.3 415.134,1139.3 409.5,1133.5C 364.505,1080 315.838,1029.83 263.5,983C 229.305,949.139 195.472,914.972 162,880.5C 130.853,846.512 102.853,810.179 78,771.5C 12.1906,662.673 -10.1427,545.34 11,419.5C 36.7481,277.375 108.581,165.542 226.5,84C 339.042,13.0922 461.042,-10.9078 592.5,12C 736.826,41.5129 847.326,118.68 924,243.5C 991.974,363.687 1011.31,491.353 982,626.5C 969.442,678.193 949.109,726.526 921,771.5C 896.147,810.179 868.147,846.512 837,880.5C 774.276,945.225 710.276,1008.56 645,1070.5C 625.691,1091.15 606.857,1112.15 588.5,1133.5 Z"/></g>
<g><path style="opacity:1" fill="#1679be" d="M 804.5,157.5 C 808.559,162.562 813.226,166.895 818.5,170.5C 820.5,172.833 822.5,175.167 824.5,177.5C 828.167,181.833 832.167,185.833 836.5,189.5C 932.439,301.491 970.939,431.157 952,578.5C 949.691,590.167 947.525,601.834 945.5,613.5C 943.565,618.573 942.232,623.906 941.5,629.5C 924.912,687.341 898.745,740.341 863,788.5C 846.756,810.245 829.589,831.245 811.5,851.5C 808.097,853.9 805.43,856.9 803.5,860.5C 802.5,860.833 801.833,861.5 801.5,862.5C 796.438,866.559 792.105,871.226 788.5,876.5C 786.167,878.167 784.167,880.167 782.5,882.5C 766.5,897.833 750.833,913.5 735.5,929.5C 732.167,932.167 729.167,935.167 726.5,938.5C 718.221,945.11 710.555,952.444 703.5,960.5C 700.833,962.5 698.5,964.833 696.5,967.5C 687.221,975.111 678.554,983.445 670.5,992.5C 666.833,995.5 663.5,998.833 660.5,1002.5C 647.586,1013.91 635.086,1025.91 623,1038.5C 622.536,1039.09 622.369,1039.76 622.5,1040.5C 619.5,1042.83 616.833,1045.5 614.5,1048.5C 608.773,1053.22 603.773,1058.56 599.5,1064.5C 597.833,1065.5 596.5,1066.83 595.5,1068.5C 591.766,1071.23 588.766,1074.56 586.5,1078.5C 572.495,1093.01 558.995,1108.01 546,1123.5C 530.247,1143.36 514.747,1163.36 499.5,1183.5C 485.556,1165.05 471.389,1146.71 457,1128.5C 444.672,1113.67 431.838,1099.34 418.5,1085.5C 416.234,1081.56 413.234,1078.23 409.5,1075.5C 409.167,1074.5 408.5,1073.83 407.5,1073.5C 404.23,1068.56 400.23,1064.23 395.5,1060.5C 394.5,1058.83 393.167,1057.5 391.5,1056.5C 369.551,1032.88 346.884,1009.88 323.5,987.5C 321.167,985.5 318.833,983.5 316.5,981.5C 311.5,975.833 306.167,970.5 300.5,965.5C 297.833,963.167 295.167,960.833 292.5,958.5C 283.5,948.833 274.167,939.5 264.5,930.5C 251.167,917.5 237.833,904.5 224.5,891.5C 219.225,884.556 213.225,878.223 206.5,872.5C 205.833,871.167 204.833,870.167 203.5,869.5C 200.899,865.229 197.566,861.563 193.5,858.5C 163.154,824.992 135.654,789.325 111,751.5C 88.2896,714.419 70.7896,675.085 58.5,633.5C 57.435,626.573 55.7683,619.906 53.5,613.5C 24.7032,473.312 50.8699,344.645 132,227.5C 210.156,123.644 313.989,62.8109 443.5,45C 554.248,33.0587 656.582,56.7254 750.5,116C 769.071,129.116 787.071,142.949 804.5,157.5 Z"/></g>
<g><path style="opacity:1" fill="#9ac7dd" d="M 804.5,157.5 C 809.774,161.105 814.441,165.438 818.5,170.5C 813.226,166.895 808.559,162.562 804.5,157.5 Z"/></g>
<g><path style="opacity:1" fill="#fefefe" d="M 721.5,263.5 C 725.773,269.442 730.773,274.776 736.5,279.5C 793.533,341.136 822.533,414.303 823.5,499C 820.218,613.429 772.218,703.429 679.5,769C 596.05,821.629 506.384,835.629 410.5,811C 312.403,780.893 242.57,719.06 201,625.5C 161.27,524.934 167.937,427.601 221,333.5C 233.118,313.553 247.284,295.22 263.5,278.5C 268.833,273.833 273.833,268.833 278.5,263.5C 331.246,213.972 393.913,185.139 466.5,177C 564.444,169.145 649.444,197.979 721.5,263.5 Z"/></g>
<g><path style="opacity:1" fill="#97c5dc" d="M 824.5,177.5 C 829.5,180.5 833.5,184.5 836.5,189.5C 832.167,185.833 828.167,181.833 824.5,177.5 Z"/></g>
<g><path style="opacity:1" fill="#99a5ab" d="M 597.5,259.5 C 589.088,256.522 580.422,255.855 571.5,257.5C 572.263,256.732 573.263,256.232 574.5,256C 581.613,255.107 588.613,255.607 595.5,257.5C 596.243,258.182 596.909,258.849 597.5,259.5 Z"/></g>
<g><path style="opacity:1" fill="#698ea7" d="M 425.5,256.5 C 419.088,256.593 412.755,257.26 406.5,258.5C 407.347,257.034 408.68,256.2 410.5,256C 415.684,255.184 420.684,255.35 425.5,256.5 Z"/></g>
<g><path style="opacity:1" fill="#1779be" d="M 425.5,256.5 C 437.41,259.556 445.91,266.889 451,278.5C 451.494,280.134 451.66,281.801 451.5,283.5C 451.333,328.168 451.5,372.835 452,417.5C 484.093,418.496 516.26,418.829 548.5,418.5C 548.182,372.803 548.515,327.137 549.5,281.5C 550.302,277.606 551.802,273.939 554,270.5C 558.625,264.353 564.458,260.02 571.5,257.5C 580.422,255.855 589.088,256.522 597.5,259.5C 608.279,265.41 614.279,274.41 615.5,286.5C 615.5,330.5 615.5,374.5 615.5,418.5C 637.5,418.5 659.5,418.5 681.5,418.5C 689.076,419.88 694.576,424.213 698,431.5C 698.667,444.167 698.667,456.833 698,469.5C 690.976,483.032 679.809,488.032 664.5,484.5C 664.5,503.5 664.5,522.5 664.5,541.5C 662.812,550.33 661.479,559.33 660.5,568.5C 653.913,600.953 637.246,627.119 610.5,647C 602.45,651.334 594.45,655.668 586.5,660C 574.241,663.631 561.907,666.964 549.5,670C 544.492,670.501 539.492,671.001 534.5,671.5C 534.5,701.5 534.5,731.5 534.5,761.5C 512.258,761.827 490.091,761.494 468,760.5C 467.5,731.169 467.333,701.835 467.5,672.5C 443.513,670.466 420.846,664.299 399.5,654C 367.083,635.245 347.583,607.411 341,570.5C 340.259,564.127 339.259,557.793 338,551.5C 337.5,529.169 337.333,506.836 337.5,484.5C 329.826,484.666 322.159,484.5 314.5,484C 312.074,482.855 309.741,481.522 307.5,480C 305.789,477.411 303.955,474.911 302,472.5C 300.391,459.57 300.058,446.57 301,433.5C 303.645,425.185 309.145,420.019 317.5,418C 339.831,417.5 362.164,417.333 384.5,417.5C 385.333,374.002 385.833,330.335 386,286.5C 386.332,282.305 387.165,278.305 388.5,274.5C 391.169,269.317 394.836,264.817 399.5,261C 401.441,259.097 403.774,258.264 406.5,258.5C 412.755,257.26 419.088,256.593 425.5,256.5 Z"/></g>
<g><path style="opacity:1" fill="#8dbfd8" d="M 721.5,263.5 C 727.227,268.224 732.227,273.558 736.5,279.5C 730.773,274.776 725.773,269.442 721.5,263.5 Z"/></g>
<g><path style="opacity:1" fill="#9dc8df" d="M 278.5,263.5 C 273.833,268.833 268.833,273.833 263.5,278.5C 267.5,272.5 272.5,267.5 278.5,263.5 Z"/></g>
<g><path style="opacity:1" fill="#aaaeb0" d="M 388.5,274.5 C 387.165,278.305 386.332,282.305 386,286.5C 385.833,330.335 385.333,374.002 384.5,417.5C 384.333,373.499 384.5,329.499 385,285.5C 384.935,281.284 386.102,277.618 388.5,274.5 Z"/></g>
<g><path style="opacity:1" fill="#bfc4c8" d="M 549.5,281.5 C 548.515,327.137 548.182,372.803 548.5,418.5C 516.26,418.829 484.093,418.496 452,417.5C 451.5,372.835 451.333,328.168 451.5,283.5C 452.499,327.664 452.832,371.997 452.5,416.5C 484.167,416.5 515.833,416.5 547.5,416.5C 546.838,371.154 547.505,326.154 549.5,281.5 Z"/></g>
<g><path style="opacity:1" fill="#bfc5c9" d="M 615.5,286.5 C 616.499,329.663 616.832,372.997 616.5,416.5C 638.526,415.844 660.192,416.511 681.5,418.5C 659.5,418.5 637.5,418.5 615.5,418.5C 615.5,374.5 615.5,330.5 615.5,286.5 Z"/></g>
<g><path style="opacity:1" fill="#87a8bc" d="M 664.5,541.5 C 664.322,550.816 662.989,559.816 660.5,568.5C 661.479,559.33 662.812,550.33 664.5,541.5 Z"/></g>
<g><path style="opacity:1" fill="#94c2db" d="M 53.5,613.5 C 55.7683,619.906 57.435,626.573 58.5,633.5C 55.9173,627.17 54.2507,620.503 53.5,613.5 Z"/></g>
<g><path style="opacity:1" fill="#93c2db" d="M 945.5,613.5 C 945.083,619.17 943.749,624.503 941.5,629.5C 942.232,623.906 943.565,618.573 945.5,613.5 Z"/></g>
<g><path style="opacity:1" fill="#a5cde2" d="M 811.5,851.5 C 809.57,855.1 806.903,858.1 803.5,860.5C 805.43,856.9 808.097,853.9 811.5,851.5 Z"/></g>
<g><path style="opacity:1" fill="#9cc8df" d="M 193.5,858.5 C 197.566,861.563 200.899,865.229 203.5,869.5C 199.434,866.437 196.101,862.771 193.5,858.5 Z"/></g>
<g><path style="opacity:1" fill="#9bc8de" d="M 206.5,872.5 C 213.225,878.223 219.225,884.556 224.5,891.5C 217.775,885.777 211.775,879.444 206.5,872.5 Z"/></g>
<g><path style="opacity:1" fill="#a2cbe1" d="M 801.5,862.5 C 797.895,867.774 793.562,872.441 788.5,876.5C 792.105,871.226 796.438,866.559 801.5,862.5 Z"/></g>
<g><path style="opacity:1" fill="#add1e6" d="M 782.5,882.5 C 768.088,898.415 753.088,913.915 737.5,929C 736.906,929.464 736.239,929.631 735.5,929.5C 750.833,913.5 766.5,897.833 782.5,882.5 Z"/></g>
<g><path style="opacity:1" fill="#99c6dd" d="M 264.5,930.5 C 274.167,939.5 283.5,948.833 292.5,958.5C 282.921,950.425 273.754,941.758 265,932.5C 264.536,931.906 264.369,931.239 264.5,930.5 Z"/></g>
<g><path style="opacity:1" fill="#a8cee3" d="M 726.5,938.5 C 719.445,946.556 711.779,953.89 703.5,960.5C 710.555,952.444 718.221,945.11 726.5,938.5 Z"/></g>
<g><path style="opacity:1" fill="#9cc8de" d="M 300.5,965.5 C 306.167,970.5 311.5,975.833 316.5,981.5C 310.167,977.167 304.833,971.833 300.5,965.5 Z"/></g>
<g><path style="opacity:1" fill="#a9cfe4" d="M 696.5,967.5 C 688.446,976.555 679.779,984.889 670.5,992.5C 678.554,983.445 687.221,975.111 696.5,967.5 Z"/></g>
<g><path style="opacity:1" fill="#a5cde2" d="M 323.5,987.5 C 346.884,1009.88 369.551,1032.88 391.5,1056.5C 368.116,1034.12 345.449,1011.12 323.5,987.5 Z"/></g>
<g><path style="opacity:1" fill="#9ac6de" d="M 660.5,1002.5 C 648.167,1015.5 635.5,1028.17 622.5,1040.5C 622.369,1039.76 622.536,1039.09 623,1038.5C 635.086,1025.91 647.586,1013.91 660.5,1002.5 Z"/></g>
<g><path style="opacity:1" fill="#a9cfe4" d="M 614.5,1048.5 C 610.227,1054.44 605.227,1059.78 599.5,1064.5C 603.773,1058.56 608.773,1053.22 614.5,1048.5 Z"/></g>
<g><path style="opacity:1" fill="#a2cbe1" d="M 395.5,1060.5 C 400.23,1064.23 404.23,1068.56 407.5,1073.5C 402.77,1069.77 398.77,1065.44 395.5,1060.5 Z"/></g>
<g><path style="opacity:1" fill="#a8cfe4" d="M 595.5,1068.5 C 593.234,1072.44 590.234,1075.77 586.5,1078.5C 588.766,1074.56 591.766,1071.23 595.5,1068.5 Z"/></g>
<g><path style="opacity:1" fill="#a3cbe1" d="M 409.5,1075.5 C 413.234,1078.23 416.234,1081.56 418.5,1085.5C 414.766,1082.77 411.766,1079.44 409.5,1075.5 Z"/></g>
<g><path style="opacity:0.3" fill="#000000" d="M 409.5,1133.5 C 415.134,1139.3 420.634,1145.3 426,1151.5C 442.833,1173 459.667,1194.5 476.5,1216C 495.136,1227.47 512.302,1225.63 528,1210.5C 546.886,1183.79 567.053,1158.12 588.5,1133.5C 627.026,1138.21 664.026,1148.38 699.5,1164C 716.692,1172.01 731.858,1182.84 745,1196.5C 762.02,1218.69 761.353,1240.36 743,1261.5C 727.43,1276.38 709.596,1287.88 689.5,1296C 641.518,1314.26 591.852,1324.6 540.5,1327C 473.757,1331.6 408.09,1325.27 343.5,1308C 320.531,1301.57 298.864,1292.24 278.5,1280C 264.617,1271.78 253.783,1260.62 246,1246.5C 238.705,1228.27 241.372,1211.6 254,1196.5C 264.794,1184.69 277.294,1175.19 291.5,1168C 328.985,1150.29 368.318,1138.79 409.5,1133.5 Z"/></g>
</svg>
