<svg id="Livello_1" data-name="Livello 1" xmlns="http://www.w3.org/2000/svg" viewBox="0 0 104 139"><defs><style>.cls-1{isolation:isolate;opacity:0.3;}.cls-2,.cls-3{fill:#ed1d1d;}.cls-3{fill-rule:evenodd;}.cls-4{fill:#fff;}</style></defs><path class="cls-1" d="M79,128.5c0,5.8-12.1,10.5-27,10.5s-27-4.7-27-10.5S37.1,118,52,118,79,122.7,79,128.5Z"/><path class="cls-2" d="M52,124c19.8-27.7,48-38.3,48-71.1C100,26,79.5,4,52,4S4,26,4,52.9C4,85.7,32.2,96.4,52,124Z"/><path class="cls-3" d="M52,128a3.73,3.73,0,0,1-3.2-1.7,143.64,143.64,0,0,0-15.4-17.7c-1.8-1.8-3.6-3.6-5.5-5.3-3.5-3.4-7-6.8-10.2-10.2C7.8,82.5,0,70.7,0,52.9,0,23.9,22.2,0,52,0s52,23.9,52,52.9c0,17.8-7.8,29.6-17.7,40.2-3.2,3.4-6.7,6.8-10.2,10.2-1.8,1.8-3.7,3.6-5.5,5.3a136.65,136.65,0,0,0-15.4,17.7A3.73,3.73,0,0,1,52,128Zm-2.5-7.4c.8,1.1,1.7,2.2,2.5,3.4.8-1.1,1.7-2.3,2.5-3.4,6-7.8,12.7-14.2,19-20.3C87.6,86.7,100,74.6,100,52.9,100,26,79.5,4,52,4S4,26,4,52.9c0,21.7,12.4,33.8,26.5,47.5C36.8,106.4,43.5,112.9,49.5,120.6Z"/><path class="cls-4" d="M86,52A34,34,0,1,1,52,18,34,34,0,0,1,86,52Z"/><path class="cls-2" d="M40.1,56.5"/><path class="cls-2" d="M52,33.7"/><rect class="cls-2" x="30.9" y="72.7" width="42.3" height="1.5"/><polygon class="cls-2" points="33.6 29.8 33.6 72.7 35 72.7 35 31.3 55.6 31.2 55.6 72.7 57.3 72.7 57.3 29.8 33.6 29.8"/><polygon class="cls-2" points="57.3 39.8 69 39.8 69 72.7 70.5 72.7 70.5 38.4 57.3 38.4 57.3 39.8"/><rect class="cls-2" x="37.7" y="59.4" width="6.8" height="1.3"/><polyline class="cls-2" points="37.7 66.2 44.5 66.2 44.5 60.8 43.1 60.8 43.1 64.7 39.1 64.7 39.1 60.8 37.7 60.8"/><polyline class="cls-2" points="37.5 57.4 44.3 57.4 44.3 52 42.9 52 43 55.9 39 55.9 39 52 37.5 52"/><polyline class="cls-2" points="46.4 57.4 53.2 57.4 53.2 52 51.8 52 51.8 55.9 47.8 55.9 47.8 52 46.4 52"/><polyline class="cls-2" points="37.5 48.6 44.3 48.6 44.3 43.2 42.9 43.2 43 47.1 39 47.1 39 43.2 37.5 43.2"/><polyline class="cls-2" points="46.4 48.6 53.2 48.6 53.2 43.2 51.8 43.2 51.8 47.1 47.8 47.1 47.8 43.2 46.4 43.2"/><polyline class="cls-2" points="37.5 39.9 44.3 39.9 44.3 34.4 42.9 34.4 43 38.3 39 38.3 39 34.4 37.5 34.4"/><polyline class="cls-2" points="46.4 39.9 53.2 39.9 53.2 34.4 51.8 34.4 51.8 38.3 47.8 38.3 47.8 34.4 46.4 34.4"/><rect class="cls-2" x="37.5" y="50.7" width="6.8" height="1.3"/><rect class="cls-2" x="37.5" y="41.9" width="6.8" height="1.3"/><rect class="cls-2" x="46.4" y="50.7" width="6.8" height="1.3"/><rect class="cls-2" x="46.4" y="41.9" width="6.8" height="1.3"/><rect class="cls-2" x="46.4" y="33.1" width="6.8" height="1.3"/><rect class="cls-2" x="37.5" y="33.1" width="6.8" height="1.3"/><rect class="cls-2" x="59.9" y="59.4" width="6.8" height="1.3"/><rect class="cls-2" x="59.7" y="50.7" width="6.8" height="1.3"/><rect class="cls-2" x="59.7" y="41.9" width="6.8" height="1.3"/><polyline class="cls-2" points="53.2 59.3 46.6 59.3 46.6 72.7 48 72.7 47.9 60.8 51.8 60.8 51.8 72.7 53.2 72.7"/><polyline class="cls-2" points="59.9 66.2 66.6 66.2 66.6 60.8 65.2 60.8 65.3 64.7 61.3 64.7 61.3 60.8 59.9 60.8"/><polyline class="cls-2" points="59.7 57.4 66.4 57.4 66.4 52 65 52 65.1 55.9 61.1 55.9 61.1 52 59.7 52"/><polyline class="cls-2" points="59.7 48.6 66.4 48.6 66.4 43.2 65 43.2 65.1 47.1 61.1 47.1 61.1 43.2 59.7 43.2"/></svg>