<svg id="Livello_1" data-name="Livello 1" xmlns="http://www.w3.org/2000/svg" viewBox="0 0 104 139"><defs><style>.cls-1{isolation:isolate;opacity:0.3;}.cls-2,.cls-3{fill:#2fd133;}.cls-3{fill-rule:evenodd;}.cls-4{fill:#fff;}</style></defs><path class="cls-1" d="M79,128.5c0,5.8-12.1,10.5-27,10.5s-27-4.7-27-10.5S37.1,118,52,118,79,122.7,79,128.5Z"/><path class="cls-2" d="M52,124c19.8-27.7,48-38.3,48-71.1C100,26,79.5,4,52,4S4,26,4,52.9C4,85.7,32.2,96.4,52,124Z"/><path class="cls-3" d="M52,128a3.74,3.74,0,0,1-3.2-1.7,143.23,143.23,0,0,0-15.4-17.7c-1.8-1.8-3.6-3.6-5.5-5.3-3.5-3.4-7-6.8-10.2-10.2C7.8,82.5,0,70.7,0,52.9,0,23.9,22.2,0,52,0s52,23.9,52,52.9c0,17.8-7.8,29.6-17.7,40.2-3.2,3.4-6.7,6.8-10.2,10.2-1.8,1.8-3.7,3.6-5.5,5.3a137.22,137.22,0,0,0-15.4,17.7A3.74,3.74,0,0,1,52,128Zm-2.5-7.4c.8,1.1,1.7,2.2,2.5,3.4.8-1.1,1.7-2.3,2.5-3.4,6-7.8,12.7-14.2,19-20.3C87.6,86.7,100,74.6,100,52.9,100,26,79.5,4,52,4S4,26,4,52.9c0,21.7,12.4,33.8,26.5,47.5C36.8,106.4,43.5,112.9,49.5,120.6Z"/><path class="cls-4" d="M89.4,52A37.4,37.4,0,1,1,52,14.6h0A37.37,37.37,0,0,1,89.4,51.94Z"/><path class="cls-2" d="M40.1,56.5"/><path class="cls-2" d="M52,33.7"/><polygon class="cls-2" points="19.77 69.9 30.23 69.9 30.23 34.1 25.89 34.1 19.77 69.9"/><polyline class="cls-2" points="31.47 36.46 31.47 46.22 72.51 46.22 72.51 36.46"/><polygon class="cls-2" points="84.23 69.5 73.77 69.5 73.77 33.7 78.11 33.7 84.23 69.5"/><rect class="cls-2" x="71.05" y="33.7" width="0.89" height="35.8"/><rect class="cls-2" x="32.41" y="34.1" width="0.89" height="35.4"/><rect class="cls-2" x="31.43" y="34.1" width="2.86" height="0.89"/><rect class="cls-2" x="70.06" y="33.66" width="2.86" height="0.89"/><rect class="cls-2" x="70.06" y="68.61" width="2.86" height="0.89"/><rect class="cls-2" x="31.43" y="69.06" width="2.86" height="0.89"/><path class="cls-2" d="M34.46,57.84c0,.79,2.63,1.71,4.82,1.71A11.86,11.86,0,0,0,42.35,59c1.59-.56,1.64-.56,3.67,0a10.31,10.31,0,0,0,6.63,0c1.59-.53,1.91-.53,3-.12,2.74.95,3.78,1,6.3.27s2.48-.75,4-.15c2,.71,3.51.74,3.51,0,0-.53-3.67-1.83-5.26-1.83a12.66,12.66,0,0,0-2.79.62l-1.18.39a2.56,2.56,0,0,1-1.5,0l-1.54-.43c-2.9-.77-3.23-.77-5.86,0l-1.38.5a2.56,2.56,0,0,1-1.4,0l-1.76-.48-1.05-.31a5.31,5.31,0,0,0-2.74-.06l-1.36.34-2,.49a2.49,2.49,0,0,1-1.43,0L37.1,57.8C34.79,57,34.46,57,34.46,57.84Z"/><path class="cls-2" d="M34.46,54c0,.8,2.63,1.72,4.82,1.72a11.48,11.48,0,0,0,3.07-.57c1.59-.56,1.64-.56,3.67,0a10.31,10.31,0,0,0,6.63,0c1.59-.53,1.91-.53,3-.11,2.74.94,3.78,1,6.3.26s2.47-.71,4-.12c2,.71,3.51.74,3.51,0,0-.53-3.67-1.83-5.26-1.83a14.06,14.06,0,0,0-2.79.62l-1.18.4a2.56,2.56,0,0,1-1.5,0L57.25,54c-2.9-.77-3.23-.77-5.86,0L50,54.39a2.56,2.56,0,0,1-1.4,0l-1.76-.49-1.05-.31a5.3,5.3,0,0,0-2.74,0l-1.36.33-2,.5a2.67,2.67,0,0,1-1.43,0L37.14,54C34.79,53.18,34.46,53.18,34.46,54Z"/><path class="cls-2" d="M34.47,61.69c0,.8,2.63,1.71,4.82,1.71a11.47,11.47,0,0,0,3.07-.56c1.59-.56,1.64-.56,3.67,0a10.31,10.31,0,0,0,6.63,0c1.59-.53,1.91-.53,3-.12A8,8,0,0,0,62,63c2.52-.73,2.47-.71,4.06-.12,2,.71,3.5.74,3.5,0,0-.53-3.67-1.83-5.26-1.83a14.06,14.06,0,0,0-2.79.62l-1.18.4a2.56,2.56,0,0,1-1.5,0l-1.54-.44c-2.9-.77-3.23-.77-5.86,0L50,62.1a2.56,2.56,0,0,1-1.4,0l-1.76-.49-1.05-.31a5.31,5.31,0,0,0-2.74-.06l-1.36.34-2,.5a2.58,2.58,0,0,1-1.43,0l-1.16-.39C34.8,60.89,34.47,60.89,34.47,61.69Z"/></svg>