<svg width="264" height="48" viewBox="0 0 264 48" fill="none" xmlns="http://www.w3.org/2000/svg">
<path d="M69.8973 21.825L65.6748 14.1543H63.9644V21.825H59.8589V2.42957H67.6467C68.9785 2.42957 70.1279 2.65325 71.0983 3.10063C72.0688 3.54801 72.8087 4.19842 73.3215 5.05532C73.8342 5.91222 74.0923 6.93774 74.0923 8.13533C74.0923 9.54284 73.7172 10.7198 72.967 11.673C72.2168 12.6263 71.1465 13.2905 69.7597 13.669L74.4674 21.825H69.9042H69.8973ZM63.9644 5.96728V10.9022H67.158C68.0149 10.9022 68.6688 10.6888 69.1265 10.2621C69.5842 9.83536 69.8113 9.21247 69.8113 8.39343C69.8113 7.57439 69.5842 6.92053 69.1265 6.53854C68.6688 6.15655 68.0046 5.96728 67.1305 5.96728H63.9644Z" fill="#2B2D33"/>
<path d="M86.2403 6.73471H90.1463V21.8216H86.2403V20.0252C85.7448 20.71 85.1184 21.2469 84.3579 21.6358C83.5974 22.0246 82.7405 22.2208 81.7907 22.2208C80.5552 22.2208 79.4505 21.8835 78.4835 21.209C77.5131 20.5345 76.7594 19.5916 76.2157 18.3837C75.6719 17.1758 75.4035 15.813 75.4035 14.2919C75.4035 12.7708 75.6754 11.3771 76.2157 10.1692C76.756 8.96126 77.5131 8.02177 78.4835 7.34727C79.454 6.67276 80.5552 6.33551 81.7907 6.33551C82.7405 6.33551 83.5974 6.53511 84.3579 6.93431C85.1184 7.3335 85.7448 7.87724 86.2403 8.56207V6.73471ZM84.6986 18.1703C85.2114 17.8296 85.6174 17.3272 85.91 16.6733C86.2059 16.016 86.3504 15.2245 86.3504 14.2919C86.3504 13.3593 86.2025 12.5678 85.91 11.9105C85.614 11.2566 85.2114 10.7542 84.6986 10.4135C84.1858 10.0728 83.5974 9.90075 82.9297 9.90075C82.2621 9.90075 81.6702 10.0728 81.1471 10.4135C80.624 10.7542 80.2214 11.2566 79.9358 11.9105C79.6501 12.5678 79.509 13.3593 79.509 14.2919C79.509 15.2245 79.6501 16.016 79.9358 16.6733C80.2214 17.3272 80.624 17.8296 81.1471 18.1703C81.6702 18.5145 82.2656 18.6831 82.9297 18.6831C83.5939 18.6831 84.1858 18.511 84.6986 18.1703Z" fill="#2B2D33"/>
<path d="M93.8113 3.98165C93.3846 3.55492 93.1712 2.99742 93.1712 2.31259C93.1712 1.62776 93.3846 1.07026 93.8113 0.643533C94.238 0.216805 94.7955 0 95.4803 0C96.1652 0 96.7158 0.213364 97.1356 0.643533C97.552 1.07026 97.762 1.62776 97.762 2.31259C97.762 2.99742 97.552 3.55492 97.1356 3.98165C96.7158 4.40837 96.1652 4.62518 95.4803 4.62518C94.7955 4.62518 94.238 4.41182 93.8113 3.98165ZM97.3903 21.8216H93.4844V6.73473H97.3903V21.8216Z" fill="#2B2D33"/>
<path d="M105.749 6.73473H109.886V10.1589H105.749V21.8251H101.843V10.1589H99.2761V6.73473H101.843V5.82277C101.843 4.16748 102.318 2.9045 103.268 2.03039C104.218 1.15629 105.522 0.719238 107.174 0.719238C107.783 0.719238 108.361 0.7743 108.915 0.891306C109.466 1.00487 109.972 1.15973 110.426 1.34901L109.428 4.34298C108.915 4.13306 108.354 4.02982 107.745 4.02982C107.04 4.02982 106.534 4.19156 106.221 4.51505C105.908 4.83854 105.749 5.3341 105.749 5.99828V6.73817V6.73473Z" fill="#2B2D33"/>
<path d="M115.733 6.73473H119.869V10.1589H115.733V21.8251H111.827V10.1589H109.26V6.73473H111.827V5.82277C111.827 4.16748 112.302 2.9045 113.251 2.03039C114.201 1.15629 115.506 0.719238 117.157 0.719238C117.767 0.719238 118.345 0.7743 118.899 0.891306C119.449 1.00487 119.955 1.15973 120.41 1.34901L119.412 4.34298C118.899 4.13306 118.338 4.02982 117.729 4.02982C117.023 4.02982 116.517 4.19156 116.204 4.51505C115.891 4.83854 115.733 5.3341 115.733 5.99828V6.73817V6.73473Z" fill="#2B2D33"/>
<path d="M135.07 15.6616H124.887C125.021 16.8041 125.389 17.6301 125.998 18.1428C126.607 18.6556 127.499 18.9137 128.679 18.9137C129.495 18.9137 130.252 18.7967 130.947 18.5592C131.642 18.3218 132.244 17.9845 132.757 17.5475L134.44 20.2283C133.679 20.8753 132.795 21.3708 131.787 21.7115C130.778 22.0522 129.694 22.2243 128.535 22.2243C126.9 22.2243 125.492 21.9111 124.312 21.2848C123.132 20.6585 122.233 19.7534 121.617 18.5764C120.998 17.3961 120.692 15.9989 120.692 14.3849C120.692 12.7709 120.995 11.3806 121.604 10.1623C122.213 8.94409 123.073 8.00461 124.185 7.33698C125.296 6.6728 126.566 6.33899 127.991 6.33899C129.416 6.33899 130.661 6.66248 131.728 7.30945C132.792 7.95643 133.614 8.87871 134.196 10.0763C134.774 11.2739 135.066 12.6814 135.066 14.2988V15.6685L135.07 15.6616ZM124.887 12.9808H131.133C131.036 11.8589 130.723 11.0227 130.193 10.4721C129.66 9.92144 128.937 9.64613 128.025 9.64613C126.201 9.64613 125.155 10.7577 124.887 12.9842V12.9808Z" fill="#2B2D33"/>
<path d="M137.792 3.98165C137.365 3.55492 137.152 2.99742 137.152 2.31259C137.152 1.62776 137.365 1.07026 137.792 0.643533C138.219 0.216805 138.776 0 139.461 0C140.146 0 140.696 0.213364 141.116 0.643533C141.533 1.07026 141.742 1.62776 141.742 2.31259C141.742 2.99742 141.533 3.55492 141.116 3.98165C140.696 4.40837 140.146 4.62518 139.461 4.62518C138.776 4.62518 138.219 4.41182 137.792 3.98165ZM141.371 21.8216H137.465V6.73473H141.371V21.8216Z" fill="#2B2D33"/>
<path d="M146.364 21.7253C145.297 21.3915 144.396 20.8753 143.656 20.1698L145.48 17.3754C146.602 18.4388 148.026 18.9722 149.757 18.9722C150.518 18.9722 151.093 18.8552 151.482 18.6143C151.87 18.3768 152.067 18.0189 152.067 17.544C152.067 17.1448 151.891 16.8179 151.54 16.5598C151.189 16.3017 150.545 16.0608 149.616 15.8337C148.419 15.5687 147.434 15.2727 146.664 14.9493C145.893 14.6258 145.27 14.1681 144.795 13.5796C144.32 12.9911 144.083 12.2203 144.083 11.2705C144.083 10.2621 144.341 9.38803 144.853 8.64814C145.366 7.90825 146.099 7.33698 147.049 6.93778C147.999 6.53859 149.104 6.33899 150.356 6.33899C151.533 6.33899 152.624 6.51106 153.622 6.85175C154.62 7.19244 155.47 7.69832 156.176 8.3625L154.352 11.0433C153.839 10.5684 153.23 10.2071 152.528 9.95929C151.826 9.71152 151.093 9.58763 150.332 9.58763C149.572 9.58763 149.059 9.70119 148.677 9.93176C148.295 10.1589 148.106 10.503 148.106 10.9573C148.106 11.2223 148.185 11.446 148.346 11.6283C148.508 11.8107 148.787 11.9828 149.19 12.1549C149.592 12.3269 150.16 12.4956 150.9 12.6676C151.925 12.9154 152.81 13.2114 153.553 13.5521C154.293 13.8928 154.902 14.378 155.377 15.0078C155.852 15.6341 156.089 16.4325 156.089 17.4029C156.089 18.3734 155.842 19.22 155.346 19.9427C154.851 20.6653 154.128 21.2263 153.178 21.6255C152.228 22.0247 151.086 22.2243 149.754 22.2243C148.556 22.2243 147.424 22.0591 146.361 21.7253H146.364Z" fill="#2B2D33"/>
<path d="M172.061 15.6616H161.878C162.012 16.8041 162.38 17.6301 162.989 18.1428C163.599 18.6556 164.49 18.9137 165.67 18.9137C166.486 18.9137 167.243 18.7967 167.938 18.5592C168.633 18.3218 169.235 17.9845 169.748 17.5475L171.431 20.2283C170.671 20.8753 169.786 21.3708 168.778 21.7115C167.769 22.0522 166.685 22.2243 165.526 22.2243C163.891 22.2243 162.484 21.9111 161.303 21.2848C160.123 20.6585 159.225 19.7534 158.609 18.5764C157.989 17.3961 157.683 15.9989 157.683 14.3849C157.683 12.7709 157.986 11.3806 158.595 10.1623C159.204 8.94409 160.064 8.00461 161.176 7.33698C162.287 6.6728 163.557 6.33899 164.982 6.33899C166.407 6.33899 167.652 6.66248 168.719 7.30945C169.783 7.95643 170.605 8.87871 171.187 10.0763C171.765 11.2739 172.057 12.6814 172.057 14.2988V15.6685L172.061 15.6616ZM161.878 12.9808H168.124C168.028 11.8589 167.714 11.0227 167.184 10.4721C166.651 9.92144 165.928 9.64613 165.016 9.64613C163.192 9.64613 162.146 10.7577 161.878 12.9842V12.9808Z" fill="#2B2D33"/>
<path d="M185.678 7.03412C186.487 7.4987 187.11 8.18009 187.547 9.07484C187.984 9.96959 188.204 11.0433 188.204 12.2994V21.8251H184.267V12.7846C184.267 11.8142 184.044 11.088 183.596 10.6028C183.149 10.1176 182.471 9.87668 181.555 9.87668C180.871 9.87668 180.268 10.0281 179.745 10.3344C179.222 10.6407 178.761 11.0949 178.362 11.704V21.8285H174.456V6.7416H178.362V8.51046C178.837 7.82563 179.46 7.29222 180.231 6.91367C181.001 6.53512 181.862 6.34241 182.812 6.34241C183.913 6.34241 184.869 6.57642 185.678 7.041V7.03412Z" fill="#2B2D33"/>
<path d="M211.144 13.3972C211.695 14.1852 211.97 15.1522 211.97 16.2913C211.97 18.0602 211.402 19.4264 210.274 20.3831C209.141 21.3432 207.541 21.825 205.469 21.825H197.682V2.42957H204.785C206.839 2.42957 208.426 2.87006 209.547 3.75449C210.669 4.63891 211.23 5.88813 211.23 7.50556C211.23 9.42584 210.404 10.8058 208.749 11.6421C209.795 12.0241 210.594 12.6091 211.144 13.3972ZM201.787 5.90877V10.4445H204.468C205.342 10.4445 205.986 10.2552 206.392 9.87321C206.801 9.49466 207.004 8.93372 207.004 8.19039C207.004 7.37479 206.784 6.78976 206.347 6.4353C205.91 6.08428 205.253 5.90877 204.379 5.90877H201.784H201.787ZM204.981 18.3424C205.876 18.3424 206.543 18.1531 206.991 17.7711C207.438 17.3926 207.662 16.7835 207.662 15.9472C207.662 15.166 207.448 14.5879 207.021 14.2059C206.595 13.8239 205.886 13.6346 204.898 13.6346H201.791V18.3424H204.984H204.981Z" fill="#2B2D33"/>
<path d="M224.321 6.73471H228.227V21.8216H224.321V20.0252C223.826 20.71 223.199 21.2469 222.439 21.6358C221.678 22.0246 220.821 22.2208 219.872 22.2208C218.636 22.2208 217.531 21.8835 216.564 21.209C215.594 20.5345 214.84 19.5916 214.297 18.3837C213.753 17.1758 213.484 15.813 213.484 14.2919C213.484 12.7708 213.756 11.3771 214.297 10.1692C214.837 8.96126 215.594 8.02177 216.564 7.34727C217.535 6.67276 218.636 6.33551 219.872 6.33551C220.821 6.33551 221.678 6.53511 222.439 6.93431C223.199 7.3335 223.826 7.87724 224.321 8.56207V6.73471ZM222.779 18.1703C223.292 17.8296 223.698 17.3272 223.991 16.6733C224.287 16.016 224.431 15.2245 224.431 14.2919C224.431 13.3593 224.283 12.5678 223.991 11.9105C223.695 11.2566 223.292 10.7542 222.779 10.4135C222.267 10.0728 221.678 9.90075 221.011 9.90075C220.343 9.90075 219.751 10.0728 219.228 10.4135C218.705 10.7542 218.302 11.2566 218.017 11.9105C217.731 12.5678 217.59 13.3593 217.59 14.2919C217.59 15.2245 217.731 16.016 218.017 16.6733C218.302 17.3272 218.705 17.8296 219.228 18.1703C219.751 18.5145 220.346 18.6831 221.011 18.6831C221.675 18.6831 222.267 18.511 222.779 18.1703Z" fill="#2B2D33"/>
<path d="M242.787 7.03412C243.596 7.4987 244.219 8.18009 244.656 9.07484C245.093 9.96959 245.313 11.0433 245.313 12.2994V21.8251H241.376V12.7846C241.376 11.8142 241.153 11.088 240.705 10.6028C240.258 10.1176 239.58 9.87668 238.665 9.87668C237.98 9.87668 237.378 10.0281 236.855 10.3344C236.331 10.6407 235.87 11.0949 235.471 11.704V21.8285H231.565V6.7416H235.471V8.51046C235.946 7.82563 236.569 7.29222 237.34 6.91367C238.111 6.53512 238.971 6.34241 239.921 6.34241C241.022 6.34241 241.979 6.57642 242.787 7.041V7.03412Z" fill="#2B2D33"/>
<path d="M256.033 13.7792L262.08 21.8216H257.403L252.241 14.9768V21.8216H248.335V1.28705H252.241V12.8672L257.148 6.73471H261.798L256.037 13.7792H256.033Z" fill="#2B2D33"/>
<path d="M61.5417 47.6834H59.8589V28.288H61.5417V47.6834Z" fill="#2B2D33"/>
<path d="M74.5466 33.3949C75.2693 33.7941 75.8268 34.3757 76.2157 35.1362C76.6045 35.8968 76.8007 36.8087 76.8007 37.8756V47.6869H75.1764V38.0752C75.1764 36.8569 74.8632 35.9278 74.2369 35.2808C73.6106 34.6338 72.7261 34.3103 71.5836 34.3103C69.739 34.3103 68.2833 35.1947 67.22 36.9636V47.6869H65.5956V33.1127H67.22V35.3943C67.7327 34.5787 68.3935 33.9387 69.2022 33.4844C70.0109 33.0267 70.9366 32.7996 71.9828 32.7996C72.9705 32.7996 73.8274 32.9992 74.55 33.3984L74.5466 33.3949Z" fill="#2B2D33"/>
<path d="M88.577 47.3703C87.758 47.7867 86.8081 47.9966 85.7241 47.9966C82.9091 47.9966 81.5016 46.5615 81.5016 43.688V34.5891H78.7623V33.1058H81.5016V29.3685H83.1293V33.1058H88.2363V34.5891H83.1293V43.5435C83.1293 44.5518 83.353 45.2917 83.8004 45.7666C84.2478 46.2415 84.9464 46.4789 85.8962 46.4789C86.7531 46.4789 87.4758 46.3172 88.0642 45.9937L88.577 47.3634V47.3703Z" fill="#2B2D33"/>
<path d="M101.926 40.9246H91.1442C91.2199 42.7692 91.6914 44.1629 92.5552 45.1024C93.419 46.0419 94.6338 46.5134 96.1927 46.5134C98.0545 46.5134 99.5308 45.8767 100.615 44.6034L101.472 45.7735C100.845 46.4755 100.078 47.0227 99.1763 47.4116C98.2747 47.8004 97.2595 47.9966 96.1376 47.9966C94.768 47.9966 93.5807 47.6972 92.5724 47.0984C91.5641 46.4996 90.7898 45.6324 90.2495 44.5036C89.7092 43.3714 89.4373 42.019 89.4373 40.4394C89.4373 38.8598 89.6989 37.5246 90.2219 36.3751C90.745 35.2257 91.4815 34.3413 92.4313 33.7219C93.3811 33.1059 94.4858 32.7961 95.7384 32.7961C96.9911 32.7961 98.0579 33.099 98.9905 33.7081C99.9231 34.3172 100.646 35.1948 101.159 36.3476C101.671 37.497 101.929 38.8529 101.929 40.4119V40.9246H101.926ZM92.5414 35.6766C91.743 36.5885 91.2853 37.8997 91.1718 39.6135H100.271C100.195 37.9203 99.7579 36.6126 98.9595 35.6903C98.1612 34.768 97.0874 34.3069 95.735 34.3069C94.3825 34.3069 93.3398 34.7646 92.5414 35.6766Z" fill="#2B2D33"/>
<path d="M111.737 32.9957V34.5925C111.317 34.5547 111.004 34.534 110.798 34.534C109.827 34.534 108.991 34.7818 108.289 35.2739C107.584 35.7694 106.968 36.4921 106.434 37.4419V47.68H104.81V33.1058H106.434V35.9002C106.947 34.9504 107.566 34.2243 108.289 33.7184C109.012 33.216 109.876 32.9613 110.884 32.9613C111.266 32.9613 111.548 32.9716 111.741 32.9888L111.737 32.9957Z" fill="#2B2D33"/>
<path d="M123.176 33.3949C123.899 33.7941 124.457 34.3757 124.845 35.1362C125.234 35.8968 125.43 36.8087 125.43 37.8756V47.6869H123.806V38.0752C123.806 36.8569 123.493 35.9278 122.867 35.2808C122.24 34.6338 121.356 34.3103 120.213 34.3103C118.369 34.3103 116.913 35.1947 115.85 36.9636V47.6869H114.225V33.1127H115.85V35.3943C116.362 34.5787 117.023 33.9387 117.832 33.4844C118.641 33.0267 119.566 32.7996 120.613 32.7996C121.6 32.7996 122.457 32.9992 123.18 33.3984L123.176 33.3949Z" fill="#2B2D33"/>
<path d="M139.034 33.1093H140.658V47.6834H139.034V44.7755C138.576 45.7838 137.916 46.5718 137.052 47.1431C136.185 47.7144 135.194 48 134.072 48C132.891 48 131.842 47.6868 130.919 47.0605C129.997 46.4342 129.274 45.5498 128.751 44.4072C128.228 43.2647 127.967 41.9363 127.967 40.4153C127.967 38.8942 128.228 37.5589 128.751 36.4095C129.274 35.2601 129.997 34.3688 130.919 33.7425C131.842 33.1161 132.891 32.803 134.072 32.803C135.252 32.803 136.188 33.0886 137.052 33.6599C137.916 34.2311 138.576 35.0295 139.034 36.0551V33.1161V33.1093ZM136.911 45.7597C137.623 45.2744 138.174 44.5724 138.566 43.6501C138.955 42.7278 139.151 41.6507 139.151 40.4118C139.151 39.1729 138.955 38.0683 138.566 37.146C138.177 36.2237 137.627 35.5216 136.911 35.0364C136.198 34.5512 135.376 34.3103 134.443 34.3103C133.511 34.3103 132.661 34.5546 131.948 35.0364C131.236 35.5216 130.678 36.2237 130.279 37.146C129.88 38.0683 129.68 39.1557 129.68 40.4118C129.68 41.6679 129.88 42.7519 130.279 43.6639C130.678 44.5758 131.236 45.2744 131.948 45.7597C132.661 46.2449 133.493 46.4858 134.443 46.4858C135.393 46.4858 136.198 46.2449 136.911 45.7597Z" fill="#2B2D33"/>
<path d="M152.779 47.3703C151.96 47.7867 151.01 47.9966 149.926 47.9966C147.111 47.9966 145.703 46.5615 145.703 43.688V34.5891H142.964V33.1058H145.703V29.3685H147.331V33.1058H152.438V34.5891H147.331V43.5435C147.331 44.5518 147.555 45.2917 148.002 45.7666C148.45 46.2415 149.148 46.4789 150.098 46.4789C150.955 46.4789 151.678 46.3172 152.266 45.9937L152.779 47.3634V47.3703Z" fill="#2B2D33"/>
<path d="M155.092 29.5165C154.844 29.2894 154.72 28.9831 154.72 28.6045C154.72 28.226 154.844 27.9163 155.092 27.6788C155.339 27.4414 155.642 27.3209 156.003 27.3209C156.382 27.3209 156.692 27.4414 156.929 27.6788C157.167 27.9163 157.287 28.226 157.287 28.6045C157.287 28.9831 157.167 29.2894 156.929 29.5165C156.692 29.7436 156.382 29.8572 156.003 29.8572C155.625 29.8572 155.339 29.7436 155.092 29.5165ZM156.802 47.6834H155.178V33.1093H156.802V47.6834Z" fill="#2B2D33"/>
<path d="M162.876 47.0708C161.868 46.4548 161.083 45.5704 160.522 44.4176C159.961 43.2681 159.679 41.9329 159.679 40.4084C159.679 38.8839 159.964 37.5486 160.536 36.3854C161.107 35.2257 161.895 34.3378 162.903 33.7184C163.912 33.1024 165.051 32.7927 166.324 32.7927C167.597 32.7927 168.767 33.1024 169.776 33.7184C170.784 34.3378 171.569 35.2223 172.13 36.3717C172.691 37.5211 172.973 38.8667 172.973 40.4084C172.973 41.9501 172.691 43.2647 172.13 44.4176C171.569 45.567 170.784 46.4514 169.776 47.0708C168.767 47.6868 167.618 47.9966 166.324 47.9966C165.03 47.9966 163.881 47.6868 162.872 47.0708H162.876ZM168.936 45.7597C169.686 45.2745 170.268 44.5759 170.677 43.6639C171.087 42.7519 171.29 41.6679 171.29 40.4118C171.29 39.1557 171.087 38.0683 170.677 37.146C170.268 36.2237 169.69 35.5217 168.936 35.0364C168.186 34.5512 167.315 34.3103 166.328 34.3103C165.34 34.3103 164.473 34.5546 163.733 35.0364C162.989 35.5217 162.415 36.2237 162.009 37.146C161.599 38.0683 161.396 39.1557 161.396 40.4118C161.396 41.6679 161.599 42.7519 162.009 43.6639C162.418 44.5759 162.993 45.2745 163.733 45.7597C164.473 46.2449 165.34 46.4858 166.328 46.4858C167.315 46.4858 168.186 46.2449 168.936 45.7597Z" fill="#2B2D33"/>
<path d="M184.811 33.3949C185.534 33.7941 186.091 34.3757 186.48 35.1362C186.869 35.8968 187.065 36.8087 187.065 37.8756V47.6869H185.441V38.0752C185.441 36.8569 185.128 35.9278 184.501 35.2808C183.875 34.6338 182.991 34.3103 181.848 34.3103C180.004 34.3103 178.548 35.1947 177.484 36.9636V47.6869H175.86V33.1127H177.484V35.3943C177.997 34.5787 178.658 33.9387 179.467 33.4844C180.275 33.0267 181.201 32.7996 182.247 32.7996C183.235 32.7996 184.092 32.9992 184.815 33.3984L184.811 33.3949Z" fill="#2B2D33"/>
<path d="M200.669 33.1093H202.293V47.6834H200.669V44.7755C200.211 45.7838 199.55 46.5718 198.687 47.1431C197.819 47.7144 196.828 48 195.706 48C194.526 48 193.476 47.6868 192.554 47.0605C191.632 46.4342 190.909 45.5498 190.386 44.4072C189.863 43.2647 189.601 41.9363 189.601 40.4153C189.601 38.8942 189.863 37.5589 190.386 36.4095C190.909 35.2601 191.632 34.3688 192.554 33.7425C193.476 33.1161 194.526 32.803 195.706 32.803C196.887 32.803 197.823 33.0886 198.687 33.6599C199.55 34.2311 200.211 35.0295 200.669 36.0551V33.1161V33.1093ZM198.545 45.7597C199.258 45.2744 199.808 44.5724 200.201 43.6501C200.59 42.7278 200.786 41.6507 200.786 40.4118C200.786 39.1729 200.59 38.0683 200.201 37.146C199.812 36.2237 199.261 35.5216 198.545 35.0364C197.83 34.5512 197.011 34.3103 196.078 34.3103C195.145 34.3103 194.295 34.5546 193.583 35.0364C192.871 35.5216 192.313 36.2237 191.914 37.146C191.515 38.0683 191.315 39.1557 191.315 40.4118C191.315 41.6679 191.515 42.7519 191.914 43.6639C192.313 44.5758 192.871 45.2744 193.583 45.7597C194.295 46.2449 195.128 46.4858 196.078 46.4858C197.028 46.4858 197.833 46.2449 198.545 45.7597Z" fill="#2B2D33"/>
<path d="M207.94 47.6834H206.316V27.1489H207.94V47.6834Z" fill="#2B2D33"/>
<path d="M45.2538 2.42957H0V47.6868H45.2538V2.42957Z" fill="#FEE600"/>
<path fill-rule="evenodd" clip-rule="evenodd" d="M32.7238 21.8388L38.4915 16.0711L40.0333 17.6128L40.0436 17.6025C40.0436 16.6114 39.7511 13.2045 37.0152 10.5374C33.9524 7.55033 30.8861 9.29854 29.8262 10.3516L24.2719 15.9059L25.6484 17.2825L22.6269 20.304L19.6054 17.2825L20.9819 15.9059L15.4276 10.3516C14.3711 9.29509 11.3048 7.55033 8.2386 10.5374C5.50272 13.2045 5.21021 16.6114 5.21021 17.6025L5.22053 17.6128L6.76226 16.0711L12.53 21.8388L14.1199 20.2489V16.4497L15.7545 18.0843V22.6785L18.0052 24.9292L6.3252 36.6091L10.9469 41.2309L22.6269 29.5509L34.3069 41.2309L38.9286 36.6091L27.2486 24.9292L29.4993 22.6785V18.0843L31.1339 16.4497V20.2489L32.7238 21.8388Z" fill="#2B2D33"/>
</svg>
